M48
; DRILL file {KiCad 9.0.8} date 2026-03-16T19:55:15+0100
; FORMAT={-:-/ absolute / inch / decimal}
; #@! TF.CreationDate,2026-03-16T19:55:15+01:00
; #@! TF.GenerationSoftware,Kicad,Pcbnew,9.0.8
; #@! TF.FileFunction,NonPlated,1,2,NPTH
FMAT,2
INCH
; #@! TA.AperFunction,NonPlated,NPTH,ComponentDrill
T1C0.0256
; #@! TA.AperFunction,NonPlated,NPTH,ComponentDrill
T2C0.0689
; #@! TA.AperFunction,NonPlated,NPTH,ComponentDrill
T3C0.0984
; #@! TA.AperFunction,NonPlated,NPTH,ComponentDrill
T4C0.1200
; #@! TA.AperFunction,NonPlated,NPTH,ComponentDrill
T5C0.1570
%
G90
G05
T1
X3.1146Y-3.3386
X3.3421Y-3.3386
T2
X2.675Y-3.5
X2.675Y-5.75
X2.675Y-6.5
X2.7687Y-5.0
X2.8625Y-4.25
X3.075Y-3.5
X3.075Y-5.75
X3.075Y-6.5
X3.1687Y-5.0
X3.2625Y-4.25
X3.425Y-3.5
X3.425Y-5.75
X3.425Y-6.5
X3.6125Y-5.0
X3.8Y-4.25
X3.825Y-3.5
X3.825Y-5.75
X3.825Y-6.5
X4.0125Y-5.0
X4.175Y-3.5
X4.175Y-5.75
X4.175Y-6.5
X4.2Y-4.25
X4.3625Y-5.0
X4.55Y-4.25
X4.575Y-3.5
X4.575Y-5.75
X4.575Y-6.5
X4.7625Y-5.0
X4.925Y-3.5
X4.925Y-5.75
X4.925Y-6.5
X4.95Y-4.25
X5.1125Y-5.0
X5.3Y-4.25
X5.325Y-3.5
X5.325Y-5.75
X5.325Y-6.5
X5.5125Y-5.0
X5.675Y-3.5
X5.675Y-5.75
X5.675Y-6.5
X5.7Y-4.25
X5.8625Y-5.0
X6.05Y-4.25
X6.075Y-3.5
X6.075Y-5.75
X6.075Y-6.5
X6.2625Y-5.0
X6.425Y-3.5
X6.425Y-5.75
X6.45Y-4.25
X6.6125Y-5.0
X6.8Y-6.5
X6.825Y-3.5
X6.825Y-5.75
X7.0Y-4.05
X7.0Y-4.45
X7.0125Y-5.0
X7.175Y-3.5
X7.175Y-5.75
X7.2Y-6.5
X7.5625Y-4.8
X7.5625Y-5.2
X7.575Y-3.5
X7.575Y-5.75
X7.9245Y-5.7496
X7.9245Y-6.4996
X7.925Y-3.5
X8.125Y-4.05
X8.125Y-4.45
X8.3245Y-5.7496
X8.3245Y-6.4996
X8.325Y-3.5
X8.6744Y-5.7496
X8.675Y-3.5
X8.6875Y-4.8
X8.6875Y-5.2
X9.0494Y-6.4996
X9.05Y-4.25
X9.0744Y-5.7496
X9.075Y-3.5
X9.2375Y-5.0
X9.425Y-3.5
X9.425Y-5.75
X9.4494Y-6.4996
X9.45Y-4.25
X9.6375Y-5.0
X9.8Y-4.25
X9.825Y-3.5
X9.825Y-5.75
X9.9875Y-5.0
X10.175Y-3.5
X10.175Y-5.75
X10.175Y-6.5
X10.2Y-4.25
X10.3875Y-5.0
X10.55Y-4.25
X10.575Y-3.5
X10.575Y-5.75
X10.575Y-6.5
X10.7375Y-5.0
X10.925Y-3.5
X10.925Y-5.75
X10.925Y-6.5
X10.95Y-4.25
X11.1375Y-5.0
X11.3Y-4.25
X11.325Y-3.5
X11.325Y-5.75
X11.325Y-6.5
X11.4875Y-5.0
X11.675Y-3.5
X11.675Y-5.75
X11.675Y-6.5
X11.7Y-4.25
X11.8875Y-5.0
X12.05Y-4.25
X12.075Y-3.5
X12.075Y-5.75
X12.075Y-6.5
X12.2375Y-5.0
X12.425Y-3.5
X12.425Y-5.75
X12.425Y-6.5
X12.45Y-4.25
X12.6375Y-5.0
X12.825Y-3.5
X12.825Y-5.75
X12.825Y-6.5
X12.9875Y-4.25
X13.0812Y-5.0
X13.175Y-3.5
X13.175Y-5.75
X13.175Y-6.5
X13.3875Y-4.25
X13.4812Y-5.0
X13.575Y-3.5
X13.575Y-5.75
X13.575Y-6.5
T3
X4.75Y-3.875
X4.75Y-6.125
X11.5Y-3.875
X11.5Y-6.125
T4
X5.875Y-6.775
X6.5312Y-6.775
X7.4688Y-6.775
X8.7812Y-6.775
X9.7188Y-6.775
X10.375Y-6.775
T5
X2.875Y-3.5
X2.875Y-5.75
X2.875Y-6.5
X2.9688Y-5.0
X3.0625Y-4.25
X3.625Y-3.5
X3.625Y-5.75
X3.625Y-6.5
X3.8125Y-5.0
X4.0Y-4.25
X4.375Y-3.5
X4.375Y-5.75
X4.375Y-6.5
X4.5625Y-5.0
X4.75Y-4.25
X5.125Y-3.5
X5.125Y-5.75
X5.125Y-6.5
X5.3125Y-5.0
X5.5Y-4.25
X5.875Y-3.5
X5.875Y-5.75
X5.875Y-6.175
X5.875Y-6.5
X6.0625Y-5.0
X6.25Y-4.25
X6.5312Y-6.175
X6.625Y-3.5
X6.625Y-5.75
X6.8125Y-5.0
X7.0Y-4.25
X7.0Y-6.5
X7.375Y-3.5
X7.375Y-5.75
X7.4688Y-6.175
X7.5625Y-5.0
X8.1245Y-5.7496
X8.1245Y-6.4996
X8.125Y-3.5
X8.125Y-4.25
X8.6875Y-5.0
X8.7812Y-6.175
X8.8744Y-5.7496
X8.875Y-3.5
X9.2494Y-6.4996
X9.25Y-4.25
X9.4375Y-5.0
X9.625Y-3.5
X9.625Y-5.75
X9.7188Y-6.175
X10.0Y-4.25
X10.1875Y-5.0
X10.375Y-3.5
X10.375Y-5.75
X10.375Y-6.175
X10.375Y-6.5
X10.75Y-4.25
X10.9375Y-5.0
X11.125Y-3.5
X11.125Y-5.75
X11.125Y-6.5
X11.5Y-4.25
X11.6875Y-5.0
X11.875Y-3.5
X11.875Y-5.75
X11.875Y-6.5
X12.25Y-4.25
X12.4375Y-5.0
X12.625Y-3.5
X12.625Y-5.75
X12.625Y-6.5
X13.1875Y-4.25
X13.2812Y-5.0
X13.375Y-3.5
X13.375Y-5.75
X13.375Y-6.5
M30
