%TF.GenerationSoftware,KiCad,Pcbnew,9.0.8*%
%TF.CreationDate,2026-03-16T21:35:02+01:00*%
%TF.ProjectId,keyboard-template-60,6b657962-6f61-4726-942d-74656d706c61,rev?*%
%TF.SameCoordinates,Original*%
%TF.FileFunction,Legend,Top*%
%TF.FilePolarity,Positive*%
%FSLAX46Y46*%
G04 Gerber Fmt 4.6, Leading zero omitted, Abs format (unit mm)*
G04 Created by KiCad (PCBNEW 9.0.8) date 2026-03-16 21:35:02*
%MOMM*%
%LPD*%
G01*
G04 APERTURE LIST*
%ADD10C,0.100000*%
%ADD11C,0.150000*%
%ADD12C,3.048000*%
%ADD13C,3.987800*%
%ADD14R,1.000000X1.000000*%
%ADD15C,3.000000*%
%ADD16C,2.500000*%
%ADD17C,1.750000*%
%ADD18C,3.300000*%
%ADD19C,0.650000*%
%ADD20O,1.000000X1.600000*%
%ADD21O,1.000000X2.100000*%
%ADD22R,1.700000X1.700000*%
%ADD23O,1.700000X1.700000*%
G04 APERTURE END LIST*
D10*
X207116904Y-130332580D02*
X207116904Y-129523057D01*
X207116904Y-129523057D02*
X207069285Y-129427819D01*
X207069285Y-129427819D02*
X207021666Y-129380200D01*
X207021666Y-129380200D02*
X206926428Y-129332580D01*
X206926428Y-129332580D02*
X206735952Y-129332580D01*
X206735952Y-129332580D02*
X206640714Y-129380200D01*
X206640714Y-129380200D02*
X206593095Y-129427819D01*
X206593095Y-129427819D02*
X206545476Y-129523057D01*
X206545476Y-129523057D02*
X206545476Y-130332580D01*
X206164523Y-130332580D02*
X205545476Y-130332580D01*
X205545476Y-130332580D02*
X205878809Y-129951628D01*
X205878809Y-129951628D02*
X205735952Y-129951628D01*
X205735952Y-129951628D02*
X205640714Y-129904009D01*
X205640714Y-129904009D02*
X205593095Y-129856390D01*
X205593095Y-129856390D02*
X205545476Y-129761152D01*
X205545476Y-129761152D02*
X205545476Y-129523057D01*
X205545476Y-129523057D02*
X205593095Y-129427819D01*
X205593095Y-129427819D02*
X205640714Y-129380200D01*
X205640714Y-129380200D02*
X205735952Y-129332580D01*
X205735952Y-129332580D02*
X206021666Y-129332580D01*
X206021666Y-129332580D02*
X206116904Y-129380200D01*
X206116904Y-129380200D02*
X206164523Y-129427819D01*
D11*
X291338095Y-152579819D02*
X291338095Y-151579819D01*
X291338095Y-152056009D02*
X291909523Y-152056009D01*
X291909523Y-152579819D02*
X291909523Y-151579819D01*
X292814285Y-151913152D02*
X292814285Y-152579819D01*
X292576190Y-151532200D02*
X292338095Y-152246485D01*
X292338095Y-152246485D02*
X292957142Y-152246485D01*
X119888095Y-152579819D02*
X119888095Y-151579819D01*
X119888095Y-152056009D02*
X120459523Y-152056009D01*
X120459523Y-152579819D02*
X120459523Y-151579819D01*
X120888095Y-151675057D02*
X120935714Y-151627438D01*
X120935714Y-151627438D02*
X121030952Y-151579819D01*
X121030952Y-151579819D02*
X121269047Y-151579819D01*
X121269047Y-151579819D02*
X121364285Y-151627438D01*
X121364285Y-151627438D02*
X121411904Y-151675057D01*
X121411904Y-151675057D02*
X121459523Y-151770295D01*
X121459523Y-151770295D02*
X121459523Y-151865533D01*
X121459523Y-151865533D02*
X121411904Y-152008390D01*
X121411904Y-152008390D02*
X120840476Y-152579819D01*
X120840476Y-152579819D02*
X121459523Y-152579819D01*
X119888095Y-95429819D02*
X119888095Y-94429819D01*
X119888095Y-94906009D02*
X120459523Y-94906009D01*
X120459523Y-95429819D02*
X120459523Y-94429819D01*
X121459523Y-95429819D02*
X120888095Y-95429819D01*
X121173809Y-95429819D02*
X121173809Y-94429819D01*
X121173809Y-94429819D02*
X121078571Y-94572676D01*
X121078571Y-94572676D02*
X120983333Y-94667914D01*
X120983333Y-94667914D02*
X120888095Y-94715533D01*
X291338095Y-95429819D02*
X291338095Y-94429819D01*
X291338095Y-94906009D02*
X291909523Y-94906009D01*
X291909523Y-95429819D02*
X291909523Y-94429819D01*
X292290476Y-94429819D02*
X292909523Y-94429819D01*
X292909523Y-94429819D02*
X292576190Y-94810771D01*
X292576190Y-94810771D02*
X292719047Y-94810771D01*
X292719047Y-94810771D02*
X292814285Y-94858390D01*
X292814285Y-94858390D02*
X292861904Y-94906009D01*
X292861904Y-94906009D02*
X292909523Y-95001247D01*
X292909523Y-95001247D02*
X292909523Y-95239342D01*
X292909523Y-95239342D02*
X292861904Y-95334580D01*
X292861904Y-95334580D02*
X292814285Y-95382200D01*
X292814285Y-95382200D02*
X292719047Y-95429819D01*
X292719047Y-95429819D02*
X292433333Y-95429819D01*
X292433333Y-95429819D02*
X292338095Y-95382200D01*
X292338095Y-95382200D02*
X292290476Y-95334580D01*
%TO.C,U4*%
D10*
X180587500Y-116537500D02*
X203587500Y-116537500D01*
X203587500Y-102537500D01*
X180587500Y-102537500D01*
X180587500Y-116537500D01*
%TD*%
%LPC*%
D12*
%TO.C,S3*%
X263525000Y-172085000D03*
D13*
X263525000Y-156845000D03*
D12*
X149225000Y-172085000D03*
D13*
X149225000Y-156845000D03*
%TD*%
D14*
%TO.C,U3*%
X208280000Y-115550000D03*
X207010000Y-115550000D03*
X205740000Y-115550000D03*
X204460000Y-115550000D03*
D15*
X215875000Y-127000000D03*
X196875000Y-127000000D03*
%TD*%
D12*
%TO.C,S1*%
X189706250Y-172085000D03*
D13*
X189706250Y-156845000D03*
D12*
X165893750Y-172085000D03*
D13*
X165893750Y-156845000D03*
%TD*%
D16*
%TO.C,H4*%
X292100000Y-155575000D03*
%TD*%
%TO.C,H2*%
X120650000Y-155575000D03*
%TD*%
%TO.C,H1*%
X120650000Y-98425000D03*
%TD*%
%TO.C,H3*%
X292100000Y-98425000D03*
%TD*%
D12*
%TO.C,S2*%
X246856250Y-172085000D03*
D13*
X246856250Y-156845000D03*
D12*
X223043750Y-172085000D03*
D13*
X223043750Y-156845000D03*
%TD*%
D17*
%TO.C,MX56*%
X268605000Y-146050000D03*
D13*
X263525000Y-146050000D03*
D17*
X258445000Y-146050000D03*
D18*
X259715000Y-143510000D03*
X266065000Y-140970000D03*
%TD*%
D17*
%TO.C,MX73*%
X306705000Y-165100000D03*
D13*
X301625000Y-165100000D03*
D17*
X296545000Y-165100000D03*
D18*
X297815000Y-162560000D03*
X304165000Y-160020000D03*
%TD*%
D17*
%TO.C,MX19*%
X144780000Y-107950000D03*
D13*
X139700000Y-107950000D03*
D17*
X134620000Y-107950000D03*
D18*
X135890000Y-105410000D03*
X142240000Y-102870000D03*
%TD*%
D17*
%TO.C,MX45*%
X342423750Y-127000000D03*
D13*
X337343750Y-127000000D03*
D17*
X332263750Y-127000000D03*
D18*
X333533750Y-124460000D03*
X339883750Y-121920000D03*
%TD*%
D17*
%TO.C,MX5*%
X154305000Y-88900000D03*
D13*
X149225000Y-88900000D03*
D17*
X144145000Y-88900000D03*
D18*
X145415000Y-86360000D03*
X151765000Y-83820000D03*
%TD*%
D17*
%TO.C,MX16*%
X82867500Y-107950000D03*
D13*
X77787500Y-107950000D03*
D17*
X72707500Y-107950000D03*
D18*
X73977500Y-105410000D03*
X80327500Y-102870000D03*
%TD*%
D17*
%TO.C,MX51*%
X173355000Y-146050000D03*
D13*
X168275000Y-146050000D03*
D17*
X163195000Y-146050000D03*
D18*
X164465000Y-143510000D03*
X170815000Y-140970000D03*
%TD*%
D17*
%TO.C,MX40*%
X244792500Y-127000000D03*
D13*
X239712500Y-127000000D03*
D17*
X234632500Y-127000000D03*
D18*
X235902500Y-124460000D03*
X242252500Y-121920000D03*
%TD*%
D17*
%TO.C,MX8*%
X211455000Y-88900000D03*
D13*
X206375000Y-88900000D03*
D17*
X201295000Y-88900000D03*
D18*
X202565000Y-86360000D03*
X208915000Y-83820000D03*
%TD*%
D17*
%TO.C,MX7*%
X192405000Y-88900000D03*
D13*
X187325000Y-88900000D03*
D17*
X182245000Y-88900000D03*
D18*
X183515000Y-86360000D03*
X189865000Y-83820000D03*
%TD*%
D17*
%TO.C,MX26*%
X259080000Y-107950000D03*
D13*
X254000000Y-107950000D03*
D17*
X248920000Y-107950000D03*
D18*
X250190000Y-105410000D03*
X256540000Y-102870000D03*
%TD*%
D17*
%TO.C,MX41*%
X263842500Y-127000000D03*
D13*
X258762500Y-127000000D03*
D17*
X253682500Y-127000000D03*
D18*
X254952500Y-124460000D03*
X261302500Y-121920000D03*
%TD*%
D17*
%TO.C,MX48*%
X116205000Y-146050000D03*
D13*
X111125000Y-146050000D03*
D17*
X106045000Y-146050000D03*
D18*
X107315000Y-143510000D03*
X113665000Y-140970000D03*
%TD*%
D17*
%TO.C,MX65*%
X154305000Y-165100000D03*
D13*
X149225000Y-165100000D03*
D17*
X144145000Y-165100000D03*
D18*
X145415000Y-162560000D03*
X151765000Y-160020000D03*
%TD*%
D17*
%TO.C,MX69*%
X240015200Y-165089600D03*
D13*
X234935200Y-165089600D03*
D17*
X229855200Y-165089600D03*
D18*
X231125200Y-162549600D03*
X237475200Y-160009600D03*
%TD*%
D17*
%TO.C,MX35*%
X159067500Y-127000000D03*
D13*
X153987500Y-127000000D03*
D17*
X148907500Y-127000000D03*
D18*
X150177500Y-124460000D03*
X156527500Y-121920000D03*
%TD*%
D17*
%TO.C,MX32*%
X101917500Y-127000000D03*
D13*
X96837500Y-127000000D03*
D17*
X91757500Y-127000000D03*
D18*
X93027500Y-124460000D03*
X99377500Y-121920000D03*
%TD*%
D17*
%TO.C,MX2*%
X86995000Y-88900000D03*
D13*
X92075000Y-88900000D03*
D17*
X97155000Y-88900000D03*
D18*
X95885000Y-91440000D03*
X89535000Y-93980000D03*
%TD*%
D17*
%TO.C,MX14*%
X325755000Y-88900000D03*
D13*
X320675000Y-88900000D03*
D17*
X315595000Y-88900000D03*
D18*
X316865000Y-86360000D03*
X323215000Y-83820000D03*
%TD*%
D17*
%TO.C,MX67*%
X182880000Y-165100000D03*
D13*
X177800000Y-165100000D03*
D17*
X172720000Y-165100000D03*
D18*
X173990000Y-162560000D03*
X180340000Y-160020000D03*
%TD*%
D17*
%TO.C,MX54*%
X230490800Y-146040800D03*
D13*
X225410800Y-146040800D03*
D17*
X220330800Y-146040800D03*
D18*
X221600800Y-143500800D03*
X227950800Y-140960800D03*
%TD*%
D17*
%TO.C,MX10*%
X249555000Y-88900000D03*
D13*
X244475000Y-88900000D03*
D17*
X239395000Y-88900000D03*
D18*
X240665000Y-86360000D03*
X247015000Y-83820000D03*
%TD*%
D17*
%TO.C,MX20*%
X163830000Y-107950000D03*
D13*
X158750000Y-107950000D03*
D17*
X153670000Y-107950000D03*
D18*
X154940000Y-105410000D03*
X161290000Y-102870000D03*
%TD*%
D17*
%TO.C,MX42*%
X282892500Y-127000000D03*
D13*
X277812500Y-127000000D03*
D17*
X272732500Y-127000000D03*
D18*
X274002500Y-124460000D03*
X280352500Y-121920000D03*
%TD*%
D17*
%TO.C,MX24*%
X206375000Y-113030000D03*
D13*
X206375000Y-107950000D03*
D17*
X206375000Y-102870000D03*
D18*
X208915000Y-104140000D03*
X211455000Y-110490000D03*
%TD*%
D17*
%TO.C,MX12*%
X287655000Y-88900000D03*
D13*
X282575000Y-88900000D03*
D17*
X277495000Y-88900000D03*
D18*
X278765000Y-86360000D03*
X285115000Y-83820000D03*
%TD*%
D19*
%TO.C,J1*%
X79110000Y-84800000D03*
X84890000Y-84800000D03*
D20*
X77680000Y-81150000D03*
D21*
X77680000Y-85330000D03*
D20*
X86320000Y-81150000D03*
D21*
X86320000Y-85330000D03*
%TD*%
D17*
%TO.C,MX46*%
X78105000Y-146050000D03*
D13*
X73025000Y-146050000D03*
D17*
X67945000Y-146050000D03*
D18*
X69215000Y-143510000D03*
X75565000Y-140970000D03*
%TD*%
D17*
%TO.C,MX15*%
X344805000Y-88900000D03*
D13*
X339725000Y-88900000D03*
D17*
X334645000Y-88900000D03*
D18*
X335915000Y-86360000D03*
X342265000Y-83820000D03*
%TD*%
D17*
%TO.C,MX50*%
X154305000Y-146050000D03*
D13*
X149225000Y-146050000D03*
D17*
X144145000Y-146050000D03*
D18*
X145415000Y-143510000D03*
X151765000Y-140970000D03*
%TD*%
D22*
%TO.C,J3*%
X113008150Y-117611500D03*
D23*
X115548150Y-117611500D03*
X113008150Y-115071500D03*
X115548150Y-115071500D03*
X113008150Y-112531500D03*
X115548150Y-112531500D03*
%TD*%
D17*
%TO.C,MX1*%
X67945000Y-88900000D03*
D13*
X73025000Y-88900000D03*
D17*
X78105000Y-88900000D03*
D18*
X76835000Y-91440000D03*
X70485000Y-93980000D03*
%TD*%
D17*
%TO.C,MX71*%
X268605000Y-165100000D03*
D13*
X263525000Y-165100000D03*
D17*
X258445000Y-165100000D03*
D18*
X259715000Y-162560000D03*
X266065000Y-160020000D03*
%TD*%
D17*
%TO.C,MX29*%
X316230000Y-107950000D03*
D13*
X311150000Y-107950000D03*
D17*
X306070000Y-107950000D03*
D18*
X307340000Y-105410000D03*
X313690000Y-102870000D03*
%TD*%
D17*
%TO.C,MX57*%
X287655000Y-146050000D03*
D13*
X282575000Y-146050000D03*
D17*
X277495000Y-146050000D03*
D18*
X278765000Y-143510000D03*
X285115000Y-140970000D03*
%TD*%
D17*
%TO.C,MX18*%
X125730000Y-107950000D03*
D13*
X120650000Y-107950000D03*
D17*
X115570000Y-107950000D03*
D18*
X116840000Y-105410000D03*
X123190000Y-102870000D03*
%TD*%
D17*
%TO.C,MX31*%
X80486250Y-127000000D03*
D13*
X75406250Y-127000000D03*
D17*
X70326250Y-127000000D03*
D18*
X71596250Y-124460000D03*
X77946250Y-121920000D03*
%TD*%
D17*
%TO.C,MX44*%
X320992500Y-127000000D03*
D13*
X315912500Y-127000000D03*
D17*
X310832500Y-127000000D03*
D18*
X312102500Y-124460000D03*
X318452500Y-121920000D03*
%TD*%
D17*
%TO.C,MX21*%
X177800000Y-102870000D03*
D13*
X177800000Y-107950000D03*
D17*
X177800000Y-113030000D03*
D18*
X175260000Y-111760000D03*
X172720000Y-105410000D03*
%TD*%
D17*
%TO.C,MX59*%
X325755000Y-146050000D03*
D13*
X320675000Y-146050000D03*
D17*
X315595000Y-146050000D03*
D18*
X316865000Y-143510000D03*
X323215000Y-140970000D03*
%TD*%
D17*
%TO.C,MX43*%
X301942500Y-127000000D03*
D13*
X296862500Y-127000000D03*
D17*
X291782500Y-127000000D03*
D18*
X293052500Y-124460000D03*
X299402500Y-121920000D03*
%TD*%
D17*
%TO.C,MX75*%
X344805000Y-165100000D03*
D13*
X339725000Y-165100000D03*
D17*
X334645000Y-165100000D03*
D18*
X335915000Y-162560000D03*
X342265000Y-160020000D03*
%TD*%
D17*
%TO.C,MX37*%
X192087500Y-121920000D03*
D13*
X192087500Y-127000000D03*
D17*
X192087500Y-132080000D03*
D18*
X189547500Y-130810000D03*
X187007500Y-124460000D03*
%TD*%
D17*
%TO.C,MX36*%
X178117500Y-127000000D03*
D13*
X173037500Y-127000000D03*
D17*
X167957500Y-127000000D03*
D18*
X169227500Y-124460000D03*
X175577500Y-121920000D03*
%TD*%
D17*
%TO.C,MX11*%
X268605000Y-88900000D03*
D13*
X263525000Y-88900000D03*
D17*
X258445000Y-88900000D03*
D18*
X259715000Y-86360000D03*
X266065000Y-83820000D03*
%TD*%
D17*
%TO.C,MX61*%
X78105000Y-165100000D03*
D13*
X73025000Y-165100000D03*
D17*
X67945000Y-165100000D03*
D18*
X69215000Y-162560000D03*
X75565000Y-160020000D03*
%TD*%
D17*
%TO.C,MX27*%
X278130000Y-107950000D03*
D13*
X273050000Y-107950000D03*
D17*
X267970000Y-107950000D03*
D18*
X269240000Y-105410000D03*
X275590000Y-102870000D03*
%TD*%
D17*
%TO.C,MX47*%
X97155000Y-146050000D03*
D13*
X92075000Y-146050000D03*
D17*
X86995000Y-146050000D03*
D18*
X88265000Y-143510000D03*
X94615000Y-140970000D03*
%TD*%
D17*
%TO.C,MX3*%
X116205000Y-88900000D03*
D13*
X111125000Y-88900000D03*
D17*
X106045000Y-88900000D03*
D18*
X107315000Y-86360000D03*
X113665000Y-83820000D03*
%TD*%
D17*
%TO.C,MX33*%
X120967500Y-127000000D03*
D13*
X115887500Y-127000000D03*
D17*
X110807500Y-127000000D03*
D18*
X112077500Y-124460000D03*
X118427500Y-121920000D03*
%TD*%
D17*
%TO.C,MX49*%
X135255000Y-146050000D03*
D13*
X130175000Y-146050000D03*
D17*
X125095000Y-146050000D03*
D18*
X126365000Y-143510000D03*
X132715000Y-140970000D03*
%TD*%
D17*
%TO.C,MX64*%
X135255000Y-165100000D03*
D13*
X130175000Y-165100000D03*
D17*
X125095000Y-165100000D03*
D18*
X126365000Y-162560000D03*
X132715000Y-160020000D03*
%TD*%
D17*
%TO.C,MX60*%
X344805000Y-146050000D03*
D13*
X339725000Y-146050000D03*
D17*
X334645000Y-146050000D03*
D18*
X335915000Y-143510000D03*
X342265000Y-140970000D03*
%TD*%
D17*
%TO.C,MX39*%
X220662500Y-132080000D03*
D13*
X220662500Y-127000000D03*
D17*
X220662500Y-121920000D03*
D18*
X223202500Y-123190000D03*
X225742500Y-129540000D03*
%TD*%
D17*
%TO.C,MX13*%
X306705000Y-88900000D03*
D13*
X301625000Y-88900000D03*
D17*
X296545000Y-88900000D03*
D18*
X297815000Y-86360000D03*
X304165000Y-83820000D03*
%TD*%
D17*
%TO.C,MX9*%
X230505000Y-88900000D03*
D13*
X225425000Y-88900000D03*
D17*
X220345000Y-88900000D03*
D18*
X221615000Y-86360000D03*
X227965000Y-83820000D03*
%TD*%
D17*
%TO.C,MX34*%
X140017500Y-127000000D03*
D13*
X134937500Y-127000000D03*
D17*
X129857500Y-127000000D03*
D18*
X131127500Y-124460000D03*
X137477500Y-121920000D03*
%TD*%
D17*
%TO.C,MX63*%
X116205000Y-165100000D03*
D13*
X111125000Y-165100000D03*
D17*
X106045000Y-165100000D03*
D18*
X107315000Y-162560000D03*
X113665000Y-160020000D03*
%TD*%
D17*
%TO.C,MX53*%
X211442000Y-146039600D03*
D13*
X206362000Y-146039600D03*
D17*
X201282000Y-146039600D03*
D18*
X202552000Y-143499600D03*
X208902000Y-140959600D03*
%TD*%
D17*
%TO.C,MX74*%
X325755000Y-165100000D03*
D13*
X320675000Y-165100000D03*
D17*
X315595000Y-165100000D03*
D18*
X316865000Y-162560000D03*
X323215000Y-160020000D03*
%TD*%
D17*
%TO.C,MX4*%
X135255000Y-88900000D03*
D13*
X130175000Y-88900000D03*
D17*
X125095000Y-88900000D03*
D18*
X126365000Y-86360000D03*
X132715000Y-83820000D03*
%TD*%
D17*
%TO.C,MX52*%
X192405000Y-146050000D03*
D13*
X187325000Y-146050000D03*
D17*
X182245000Y-146050000D03*
D18*
X183515000Y-143510000D03*
X189865000Y-140970000D03*
%TD*%
D17*
%TO.C,MX55*%
X249555000Y-146050000D03*
D13*
X244475000Y-146050000D03*
D17*
X239395000Y-146050000D03*
D18*
X240665000Y-143510000D03*
X247015000Y-140970000D03*
%TD*%
D17*
%TO.C,MX25*%
X240030000Y-107950000D03*
D13*
X234950000Y-107950000D03*
D17*
X229870000Y-107950000D03*
D18*
X231140000Y-105410000D03*
X237490000Y-102870000D03*
%TD*%
D17*
%TO.C,MX72*%
X287655000Y-165100000D03*
D13*
X282575000Y-165100000D03*
D17*
X277495000Y-165100000D03*
D18*
X278765000Y-162560000D03*
X285115000Y-160020000D03*
%TD*%
D17*
%TO.C,MX30*%
X340042500Y-107950000D03*
D13*
X334962500Y-107950000D03*
D17*
X329882500Y-107950000D03*
D18*
X331152500Y-105410000D03*
X337502500Y-102870000D03*
%TD*%
D17*
%TO.C,MX58*%
X306705000Y-146050000D03*
D13*
X301625000Y-146050000D03*
D17*
X296545000Y-146050000D03*
D18*
X297815000Y-143510000D03*
X304165000Y-140970000D03*
%TD*%
D17*
%TO.C,MX68*%
X211442000Y-165089600D03*
D13*
X206362000Y-165089600D03*
D17*
X201282000Y-165089600D03*
D18*
X202552000Y-162549600D03*
X208902000Y-160009600D03*
%TD*%
D17*
%TO.C,MX17*%
X106680000Y-107950000D03*
D13*
X101600000Y-107950000D03*
D17*
X96520000Y-107950000D03*
D18*
X97790000Y-105410000D03*
X104140000Y-102870000D03*
%TD*%
D17*
%TO.C,MX28*%
X297180000Y-107950000D03*
D13*
X292100000Y-107950000D03*
D17*
X287020000Y-107950000D03*
D18*
X288290000Y-105410000D03*
X294640000Y-102870000D03*
%TD*%
D17*
%TO.C,MX62*%
X97155000Y-165100000D03*
D13*
X92075000Y-165100000D03*
D17*
X86995000Y-165100000D03*
D18*
X88265000Y-162560000D03*
X94615000Y-160020000D03*
%TD*%
D17*
%TO.C,MX6*%
X173355000Y-88900000D03*
D13*
X168275000Y-88900000D03*
D17*
X163195000Y-88900000D03*
D18*
X164465000Y-86360000D03*
X170815000Y-83820000D03*
%TD*%
%LPD*%
M02*
