%TF.GenerationSoftware,KiCad,Pcbnew,9.0.8*%
%TF.CreationDate,2026-03-16T21:35:02+01:00*%
%TF.ProjectId,keyboard-template-60,6b657962-6f61-4726-942d-74656d706c61,rev?*%
%TF.SameCoordinates,Original*%
%TF.FileFunction,Soldermask,Bot*%
%TF.FilePolarity,Negative*%
%FSLAX46Y46*%
G04 Gerber Fmt 4.6, Leading zero omitted, Abs format (unit mm)*
G04 Created by KiCad (PCBNEW 9.0.8) date 2026-03-16 21:35:02*
%MOMM*%
%LPD*%
G01*
G04 APERTURE LIST*
G04 Aperture macros list*
%AMRoundRect*
0 Rectangle with rounded corners*
0 $1 Rounding radius*
0 $2 $3 $4 $5 $6 $7 $8 $9 X,Y pos of 4 corners*
0 Add a 4 corners polygon primitive as box body*
4,1,4,$2,$3,$4,$5,$6,$7,$8,$9,$2,$3,0*
0 Add four circle primitives for the rounded corners*
1,1,$1+$1,$2,$3*
1,1,$1+$1,$4,$5*
1,1,$1+$1,$6,$7*
1,1,$1+$1,$8,$9*
0 Add four rect primitives between the rounded corners*
20,1,$1+$1,$2,$3,$4,$5,0*
20,1,$1+$1,$4,$5,$6,$7,0*
20,1,$1+$1,$6,$7,$8,$9,0*
20,1,$1+$1,$8,$9,$2,$3,0*%
%AMRotRect*
0 Rectangle, with rotation*
0 The origin of the aperture is its center*
0 $1 length*
0 $2 width*
0 $3 Rotation angle, in degrees counterclockwise*
0 Add horizontal line*
21,1,$1,$2,0,0,$3*%
G04 Aperture macros list end*
%ADD10C,3.048000*%
%ADD11C,3.987800*%
%ADD12C,3.000000*%
%ADD13C,2.500000*%
%ADD14C,1.750000*%
%ADD15C,3.300000*%
%ADD16RoundRect,0.250000X1.025000X1.000000X-1.025000X1.000000X-1.025000X-1.000000X1.025000X-1.000000X0*%
%ADD17R,1.200000X0.900000*%
%ADD18RoundRect,0.237500X-0.237500X0.300000X-0.237500X-0.300000X0.237500X-0.300000X0.237500X0.300000X0*%
%ADD19RoundRect,0.237500X-0.380070X0.044194X0.044194X-0.380070X0.380070X-0.044194X-0.044194X0.380070X0*%
%ADD20RoundRect,0.237500X0.300000X0.237500X-0.300000X0.237500X-0.300000X-0.237500X0.300000X-0.237500X0*%
%ADD21RoundRect,0.237500X0.237500X-0.300000X0.237500X0.300000X-0.237500X0.300000X-0.237500X-0.300000X0*%
%ADD22RoundRect,0.250000X-1.025000X-1.000000X1.025000X-1.000000X1.025000X1.000000X-1.025000X1.000000X0*%
%ADD23R,1.800000X1.100000*%
%ADD24RoundRect,0.250000X1.000000X-1.025000X1.000000X1.025000X-1.000000X1.025000X-1.000000X-1.025000X0*%
%ADD25RoundRect,0.150000X0.487500X0.150000X-0.487500X0.150000X-0.487500X-0.150000X0.487500X-0.150000X0*%
%ADD26RoundRect,0.237500X-0.300000X-0.237500X0.300000X-0.237500X0.300000X0.237500X-0.300000X0.237500X0*%
%ADD27C,0.650000*%
%ADD28R,0.600000X1.450000*%
%ADD29R,0.300000X1.450000*%
%ADD30O,1.000000X1.600000*%
%ADD31O,1.000000X2.100000*%
%ADD32RotRect,1.400000X1.200000X135.000000*%
%ADD33R,1.700000X1.700000*%
%ADD34O,1.700000X1.700000*%
%ADD35RoundRect,0.375000X0.625000X0.375000X-0.625000X0.375000X-0.625000X-0.375000X0.625000X-0.375000X0*%
%ADD36RoundRect,0.500000X0.500000X1.400000X-0.500000X1.400000X-0.500000X-1.400000X0.500000X-1.400000X0*%
%ADD37RoundRect,0.250000X-1.000000X1.025000X-1.000000X-1.025000X1.000000X-1.025000X1.000000X1.025000X0*%
%ADD38RoundRect,0.062500X-0.062500X0.375000X-0.062500X-0.375000X0.062500X-0.375000X0.062500X0.375000X0*%
%ADD39RoundRect,0.062500X-0.375000X0.062500X-0.375000X-0.062500X0.375000X-0.062500X0.375000X0.062500X0*%
%ADD40R,5.150000X5.150000*%
%ADD41RoundRect,0.150000X-0.275000X0.150000X-0.275000X-0.150000X0.275000X-0.150000X0.275000X0.150000X0*%
%ADD42RoundRect,0.187500X-0.362500X0.187500X-0.362500X-0.187500X0.362500X-0.187500X0.362500X0.187500X0*%
%ADD43R,1.200000X2.400000*%
%ADD44R,2.000000X2.400000*%
%ADD45RoundRect,0.250001X0.462499X0.624999X-0.462499X0.624999X-0.462499X-0.624999X0.462499X-0.624999X0*%
G04 APERTURE END LIST*
D10*
%TO.C,S3*%
X263525000Y-172085000D03*
D11*
X263525000Y-156845000D03*
D10*
X149225000Y-172085000D03*
D11*
X149225000Y-156845000D03*
%TD*%
D12*
%TO.C,U3*%
X215875000Y-127000000D03*
X196875000Y-127000000D03*
%TD*%
D10*
%TO.C,S1*%
X189706250Y-172085000D03*
D11*
X189706250Y-156845000D03*
D10*
X165893750Y-172085000D03*
D11*
X165893750Y-156845000D03*
%TD*%
D13*
%TO.C,H4*%
X292100000Y-155575000D03*
%TD*%
%TO.C,H2*%
X120650000Y-155575000D03*
%TD*%
%TO.C,H1*%
X120650000Y-98425000D03*
%TD*%
%TO.C,H3*%
X292100000Y-98425000D03*
%TD*%
D10*
%TO.C,S2*%
X246856250Y-172085000D03*
D11*
X246856250Y-156845000D03*
D10*
X223043750Y-172085000D03*
D11*
X223043750Y-156845000D03*
%TD*%
D14*
%TO.C,MX56*%
X268605000Y-146050000D03*
D11*
X263525000Y-146050000D03*
D14*
X258445000Y-146050000D03*
D15*
X259715000Y-143510000D03*
D16*
X256165000Y-143510000D03*
X269615000Y-140970000D03*
D15*
X266065000Y-140970000D03*
%TD*%
D17*
%TO.C,D47*%
X100006200Y-150071900D03*
X100006200Y-146771900D03*
%TD*%
D14*
%TO.C,MX73*%
X306705000Y-165100000D03*
D11*
X301625000Y-165100000D03*
D14*
X296545000Y-165100000D03*
D15*
X297815000Y-162560000D03*
D16*
X294265000Y-162560000D03*
X307715000Y-160020000D03*
D15*
X304165000Y-160020000D03*
%TD*%
D17*
%TO.C,D52*%
X195262500Y-150081250D03*
X195262500Y-146781250D03*
%TD*%
%TO.C,D55*%
X252396600Y-150071900D03*
X252396600Y-146771900D03*
%TD*%
D14*
%TO.C,MX19*%
X144780000Y-107950000D03*
D11*
X139700000Y-107950000D03*
D14*
X134620000Y-107950000D03*
D15*
X135890000Y-105410000D03*
D16*
X132340000Y-105410000D03*
X145790000Y-102870000D03*
D15*
X142240000Y-102870000D03*
%TD*%
D14*
%TO.C,MX45*%
X342423750Y-127000000D03*
D11*
X337343750Y-127000000D03*
D14*
X332263750Y-127000000D03*
D15*
X333533750Y-124460000D03*
D16*
X329983750Y-124460000D03*
X343433750Y-121920000D03*
D15*
X339883750Y-121920000D03*
%TD*%
D18*
%TO.C,R9*%
X186531250Y-93593750D03*
X186531250Y-95318750D03*
%TD*%
D14*
%TO.C,MX5*%
X154305000Y-88900000D03*
D11*
X149225000Y-88900000D03*
D14*
X144145000Y-88900000D03*
D15*
X145415000Y-86360000D03*
D16*
X141865000Y-86360000D03*
X155315000Y-83820000D03*
D15*
X151765000Y-83820000D03*
%TD*%
D17*
%TO.C,D15*%
X331787500Y-92931250D03*
X331787500Y-89631250D03*
%TD*%
%TO.C,D39*%
X230187500Y-131031250D03*
X230187500Y-127731250D03*
%TD*%
D19*
%TO.C,R6*%
X83280240Y-97890120D03*
X84500000Y-99109880D03*
%TD*%
D14*
%TO.C,MX16*%
X82867500Y-107950000D03*
D11*
X77787500Y-107950000D03*
D14*
X72707500Y-107950000D03*
D15*
X73977500Y-105410000D03*
D16*
X70427500Y-105410000D03*
X83877500Y-102870000D03*
D15*
X80327500Y-102870000D03*
%TD*%
D20*
%TO.C,C10*%
X98862500Y-99500000D03*
X97137500Y-99500000D03*
%TD*%
D17*
%TO.C,D6*%
X176201400Y-92925500D03*
X176201400Y-89625500D03*
%TD*%
D14*
%TO.C,MX51*%
X173355000Y-146050000D03*
D11*
X168275000Y-146050000D03*
D14*
X163195000Y-146050000D03*
D15*
X164465000Y-143510000D03*
D16*
X160915000Y-143510000D03*
X174365000Y-140970000D03*
D15*
X170815000Y-140970000D03*
%TD*%
D17*
%TO.C,D27*%
X280987500Y-111974300D03*
X280987500Y-108674300D03*
%TD*%
D20*
%TO.C,C7*%
X81031251Y-111125000D03*
X79306249Y-111125000D03*
%TD*%
D14*
%TO.C,MX40*%
X244792500Y-127000000D03*
D11*
X239712500Y-127000000D03*
D14*
X234632500Y-127000000D03*
D15*
X235902500Y-124460000D03*
D16*
X232352500Y-124460000D03*
X245802500Y-121920000D03*
D15*
X242252500Y-121920000D03*
%TD*%
D17*
%TO.C,D18*%
X128587500Y-111974300D03*
X128587500Y-108674300D03*
%TD*%
%TO.C,D57*%
X290494200Y-150071900D03*
X290494200Y-146771900D03*
%TD*%
D21*
%TO.C,R1*%
X88503125Y-130640625D03*
X88503125Y-128915625D03*
%TD*%
D14*
%TO.C,MX8*%
X211455000Y-88900000D03*
D11*
X206375000Y-88900000D03*
D14*
X201295000Y-88900000D03*
D15*
X202565000Y-86360000D03*
D16*
X199015000Y-86360000D03*
X212465000Y-83820000D03*
D15*
X208915000Y-83820000D03*
%TD*%
D14*
%TO.C,MX7*%
X192405000Y-88900000D03*
D11*
X187325000Y-88900000D03*
D14*
X182245000Y-88900000D03*
D15*
X183515000Y-86360000D03*
D16*
X179965000Y-86360000D03*
X193415000Y-83820000D03*
D15*
X189865000Y-83820000D03*
%TD*%
D20*
%TO.C,C2*%
X103362501Y-113500000D03*
X101637499Y-113500000D03*
%TD*%
D17*
%TO.C,D59*%
X328612500Y-150081250D03*
X328612500Y-146781250D03*
%TD*%
D14*
%TO.C,MX26*%
X259080000Y-107950000D03*
D11*
X254000000Y-107950000D03*
D14*
X248920000Y-107950000D03*
D15*
X250190000Y-105410000D03*
D16*
X246640000Y-105410000D03*
X260090000Y-102870000D03*
D15*
X256540000Y-102870000D03*
%TD*%
D14*
%TO.C,MX41*%
X263842500Y-127000000D03*
D11*
X258762500Y-127000000D03*
D14*
X253682500Y-127000000D03*
D15*
X254952500Y-124460000D03*
D16*
X251402500Y-124460000D03*
X264852500Y-121920000D03*
D15*
X261302500Y-121920000D03*
%TD*%
D14*
%TO.C,MX48*%
X116205000Y-146050000D03*
D11*
X111125000Y-146050000D03*
D14*
X106045000Y-146050000D03*
D15*
X107315000Y-143510000D03*
D16*
X103765000Y-143510000D03*
X117215000Y-140970000D03*
D15*
X113665000Y-140970000D03*
%TD*%
D20*
%TO.C,C6*%
X81031251Y-117078125D03*
X79306249Y-117078125D03*
%TD*%
D17*
%TO.C,D35*%
X161925000Y-131023100D03*
X161925000Y-127723100D03*
%TD*%
%TO.C,D37*%
X180963600Y-131023100D03*
X180963600Y-127723100D03*
%TD*%
D14*
%TO.C,MX65*%
X154305000Y-165100000D03*
D11*
X149225000Y-165100000D03*
D14*
X144145000Y-165100000D03*
D15*
X145415000Y-162560000D03*
D16*
X141865000Y-162560000D03*
X155315000Y-160020000D03*
D15*
X151765000Y-160020000D03*
%TD*%
D17*
%TO.C,D25*%
X242887500Y-111981250D03*
X242887500Y-108681250D03*
%TD*%
%TO.C,D30*%
X342900000Y-111974300D03*
X342900000Y-108674300D03*
%TD*%
%TO.C,D29*%
X319087500Y-111974300D03*
X319087500Y-108674300D03*
%TD*%
D14*
%TO.C,MX69*%
X240015200Y-165089600D03*
D11*
X234935200Y-165089600D03*
D14*
X229855200Y-165089600D03*
D15*
X231125200Y-162549600D03*
D16*
X227575200Y-162549600D03*
X241025200Y-160009600D03*
D15*
X237475200Y-160009600D03*
%TD*%
D14*
%TO.C,MX35*%
X159067500Y-127000000D03*
D11*
X153987500Y-127000000D03*
D14*
X148907500Y-127000000D03*
D15*
X150177500Y-124460000D03*
D16*
X146627500Y-124460000D03*
X160077500Y-121920000D03*
D15*
X156527500Y-121920000D03*
%TD*%
D14*
%TO.C,MX32*%
X101917500Y-127000000D03*
D11*
X96837500Y-127000000D03*
D14*
X91757500Y-127000000D03*
D15*
X93027500Y-124460000D03*
D16*
X89477500Y-124460000D03*
X102927500Y-121920000D03*
D15*
X99377500Y-121920000D03*
%TD*%
D14*
%TO.C,MX2*%
X86995000Y-88900000D03*
D11*
X92075000Y-88900000D03*
D14*
X97155000Y-88900000D03*
D15*
X95885000Y-91440000D03*
D22*
X99435000Y-91440000D03*
X85985000Y-93980000D03*
D15*
X89535000Y-93980000D03*
%TD*%
D14*
%TO.C,MX14*%
X325755000Y-88900000D03*
D11*
X320675000Y-88900000D03*
D14*
X315595000Y-88900000D03*
D15*
X316865000Y-86360000D03*
D16*
X313315000Y-86360000D03*
X326765000Y-83820000D03*
D15*
X323215000Y-83820000D03*
%TD*%
D14*
%TO.C,MX67*%
X182880000Y-165100000D03*
D11*
X177800000Y-165100000D03*
D14*
X172720000Y-165100000D03*
D15*
X173990000Y-162560000D03*
D16*
X170440000Y-162560000D03*
X183890000Y-160020000D03*
D15*
X180340000Y-160020000D03*
%TD*%
D17*
%TO.C,D62*%
X100012500Y-169120700D03*
X100012500Y-165820700D03*
%TD*%
%TO.C,D75*%
X331787500Y-169131250D03*
X331787500Y-165831250D03*
%TD*%
D14*
%TO.C,MX54*%
X230490800Y-146040800D03*
D11*
X225410800Y-146040800D03*
D14*
X220330800Y-146040800D03*
D15*
X221600800Y-143500800D03*
D16*
X218050800Y-143500800D03*
X231500800Y-140960800D03*
D15*
X227950800Y-140960800D03*
%TD*%
D23*
%TO.C,SW1*%
X90556600Y-134397900D03*
X96756600Y-134397900D03*
X90556600Y-130697900D03*
X96756600Y-130697900D03*
%TD*%
D14*
%TO.C,MX10*%
X249555000Y-88900000D03*
D11*
X244475000Y-88900000D03*
D14*
X239395000Y-88900000D03*
D15*
X240665000Y-86360000D03*
D16*
X237115000Y-86360000D03*
X250565000Y-83820000D03*
D15*
X247015000Y-83820000D03*
%TD*%
D14*
%TO.C,MX20*%
X163830000Y-107950000D03*
D11*
X158750000Y-107950000D03*
D14*
X153670000Y-107950000D03*
D15*
X154940000Y-105410000D03*
D16*
X151390000Y-105410000D03*
X164840000Y-102870000D03*
D15*
X161290000Y-102870000D03*
%TD*%
D21*
%TO.C,C8*%
X91672350Y-106821451D03*
X91672350Y-105096449D03*
%TD*%
D14*
%TO.C,MX42*%
X282892500Y-127000000D03*
D11*
X277812500Y-127000000D03*
D14*
X272732500Y-127000000D03*
D15*
X274002500Y-124460000D03*
D16*
X270452500Y-124460000D03*
X283902500Y-121920000D03*
D15*
X280352500Y-121920000D03*
%TD*%
D17*
%TO.C,D13*%
X309562500Y-92925500D03*
X309562500Y-89625500D03*
%TD*%
D14*
%TO.C,MX24*%
X206375000Y-113030000D03*
D11*
X206375000Y-107950000D03*
D14*
X206375000Y-102870000D03*
D15*
X208915000Y-104140000D03*
D24*
X208915000Y-100590000D03*
X211455000Y-114040000D03*
D15*
X211455000Y-110490000D03*
%TD*%
D17*
%TO.C,D73*%
X309959375Y-169131250D03*
X309959375Y-165831250D03*
%TD*%
%TO.C,D58*%
X309562500Y-150071900D03*
X309562500Y-146771900D03*
%TD*%
%TO.C,D46*%
X80957400Y-150071900D03*
X80957400Y-146771900D03*
%TD*%
%TO.C,D42*%
X285750000Y-131023100D03*
X285750000Y-127723100D03*
%TD*%
D25*
%TO.C,U2*%
X83137500Y-94050000D03*
X83137500Y-95000000D03*
X83137500Y-95950000D03*
X80862500Y-95950000D03*
X80862500Y-95000000D03*
X80862500Y-94050000D03*
%TD*%
D17*
%TO.C,D10*%
X252412500Y-92925500D03*
X252412500Y-89625500D03*
%TD*%
%TO.C,D40*%
X247650000Y-131023100D03*
X247650000Y-127723100D03*
%TD*%
D14*
%TO.C,MX12*%
X287655000Y-88900000D03*
D11*
X282575000Y-88900000D03*
D14*
X277495000Y-88900000D03*
D15*
X278765000Y-86360000D03*
D16*
X275215000Y-86360000D03*
X288665000Y-83820000D03*
D15*
X285115000Y-83820000D03*
%TD*%
D26*
%TO.C,C4*%
X92137499Y-112500000D03*
X93862501Y-112500000D03*
%TD*%
D17*
%TO.C,D68*%
X214312500Y-169131250D03*
X214312500Y-165831250D03*
%TD*%
D20*
%TO.C,R2*%
X81031251Y-118665625D03*
X79306249Y-118665625D03*
%TD*%
D17*
%TO.C,D63*%
X119055000Y-169120700D03*
X119055000Y-165820700D03*
%TD*%
%TO.C,D17*%
X109530600Y-111974300D03*
X109530600Y-108674300D03*
%TD*%
D27*
%TO.C,J1*%
X79110000Y-84800000D03*
X84890000Y-84800000D03*
D28*
X78750000Y-86245000D03*
X79550000Y-86245000D03*
D29*
X80750000Y-86245000D03*
X81750000Y-86245000D03*
X82250000Y-86245000D03*
X83250000Y-86245000D03*
D28*
X84450000Y-86245000D03*
X85250000Y-86245000D03*
X85250000Y-86245000D03*
X84450000Y-86245000D03*
D29*
X83750000Y-86245000D03*
X82750000Y-86245000D03*
X81250000Y-86245000D03*
X80250000Y-86245000D03*
D28*
X79550000Y-86245000D03*
X78750000Y-86245000D03*
D30*
X77680000Y-81150000D03*
D31*
X77680000Y-85330000D03*
D30*
X86320000Y-81150000D03*
D31*
X86320000Y-85330000D03*
%TD*%
D14*
%TO.C,MX46*%
X78105000Y-146050000D03*
D11*
X73025000Y-146050000D03*
D14*
X67945000Y-146050000D03*
D15*
X69215000Y-143510000D03*
D16*
X65665000Y-143510000D03*
X79115000Y-140970000D03*
D15*
X75565000Y-140970000D03*
%TD*%
D14*
%TO.C,MX15*%
X344805000Y-88900000D03*
D11*
X339725000Y-88900000D03*
D14*
X334645000Y-88900000D03*
D15*
X335915000Y-86360000D03*
D16*
X332365000Y-86360000D03*
X345815000Y-83820000D03*
D15*
X342265000Y-83820000D03*
%TD*%
D14*
%TO.C,MX50*%
X154305000Y-146050000D03*
D11*
X149225000Y-146050000D03*
D14*
X144145000Y-146050000D03*
D15*
X145415000Y-143510000D03*
D16*
X141865000Y-143510000D03*
X155315000Y-140970000D03*
D15*
X151765000Y-140970000D03*
%TD*%
D17*
%TO.C,D4*%
X138103800Y-92925500D03*
X138103800Y-89625500D03*
%TD*%
%TO.C,D61*%
X80957400Y-169120700D03*
X80957400Y-165820700D03*
%TD*%
%TO.C,D67*%
X198437500Y-169131250D03*
X198437500Y-165831250D03*
%TD*%
%TO.C,D72*%
X290494200Y-169131250D03*
X290494200Y-165831250D03*
%TD*%
%TO.C,D44*%
X323829600Y-131023100D03*
X323829600Y-127723100D03*
%TD*%
D32*
%TO.C,Y1*%
X98198727Y-115878858D03*
X96643092Y-114323224D03*
X97845173Y-113121142D03*
X99400808Y-114676776D03*
%TD*%
D17*
%TO.C,D53*%
X214312500Y-150071900D03*
X214312500Y-146771900D03*
%TD*%
%TO.C,D50*%
X157152600Y-150071900D03*
X157152600Y-146771900D03*
%TD*%
%TO.C,D36*%
X165089600Y-131023100D03*
X165089600Y-127723100D03*
%TD*%
%TO.C,D3*%
X119055000Y-92925500D03*
X119055000Y-89625500D03*
%TD*%
D33*
%TO.C,J3*%
X113008150Y-117611500D03*
D34*
X115548150Y-117611500D03*
X113008150Y-115071500D03*
X115548150Y-115071500D03*
X113008150Y-112531500D03*
X115548150Y-112531500D03*
%TD*%
D17*
%TO.C,D24*%
X217487500Y-111981250D03*
X217487500Y-108681250D03*
%TD*%
%TO.C,D69*%
X242872200Y-169120700D03*
X242872200Y-165820700D03*
%TD*%
D14*
%TO.C,MX1*%
X67945000Y-88900000D03*
D11*
X73025000Y-88900000D03*
D14*
X78105000Y-88900000D03*
D15*
X76835000Y-91440000D03*
D22*
X80385000Y-91440000D03*
X66935000Y-93980000D03*
D15*
X70485000Y-93980000D03*
%TD*%
D14*
%TO.C,MX71*%
X268605000Y-165100000D03*
D11*
X263525000Y-165100000D03*
D14*
X258445000Y-165100000D03*
D15*
X259715000Y-162560000D03*
D16*
X256165000Y-162560000D03*
X269615000Y-160020000D03*
D15*
X266065000Y-160020000D03*
%TD*%
D14*
%TO.C,MX29*%
X316230000Y-107950000D03*
D11*
X311150000Y-107950000D03*
D14*
X306070000Y-107950000D03*
D15*
X307340000Y-105410000D03*
D16*
X303790000Y-105410000D03*
X317240000Y-102870000D03*
D15*
X313690000Y-102870000D03*
%TD*%
D17*
%TO.C,D49*%
X138103800Y-150071900D03*
X138103800Y-146771900D03*
%TD*%
%TO.C,D5*%
X157152600Y-92925500D03*
X157152600Y-89625500D03*
%TD*%
D21*
%TO.C,R8*%
X188515625Y-95318750D03*
X188515625Y-93593750D03*
%TD*%
D14*
%TO.C,MX57*%
X287655000Y-146050000D03*
D11*
X282575000Y-146050000D03*
D14*
X277495000Y-146050000D03*
D15*
X278765000Y-143510000D03*
D16*
X275215000Y-143510000D03*
X288665000Y-140970000D03*
D15*
X285115000Y-140970000D03*
%TD*%
D17*
%TO.C,D14*%
X328612500Y-92931250D03*
X328612500Y-89631250D03*
%TD*%
%TO.C,D21*%
X166677000Y-111974300D03*
X166677000Y-108674300D03*
%TD*%
D14*
%TO.C,MX18*%
X125730000Y-107950000D03*
D11*
X120650000Y-107950000D03*
D14*
X115570000Y-107950000D03*
D15*
X116840000Y-105410000D03*
D16*
X113290000Y-105410000D03*
X126740000Y-102870000D03*
D15*
X123190000Y-102870000D03*
%TD*%
D17*
%TO.C,D43*%
X304800000Y-131023100D03*
X304800000Y-127723100D03*
%TD*%
D14*
%TO.C,MX31*%
X80486250Y-127000000D03*
D11*
X75406250Y-127000000D03*
D14*
X70326250Y-127000000D03*
D15*
X71596250Y-124460000D03*
D16*
X68046250Y-124460000D03*
X81496250Y-121920000D03*
D15*
X77946250Y-121920000D03*
%TD*%
D17*
%TO.C,D56*%
X271462500Y-150071900D03*
X271462500Y-146771900D03*
%TD*%
%TO.C,D8*%
X198425000Y-92925500D03*
X198425000Y-89625500D03*
%TD*%
D35*
%TO.C,U6*%
X93650000Y-97700000D03*
X93650000Y-100000000D03*
D36*
X87350000Y-100000000D03*
D35*
X93650000Y-102300000D03*
%TD*%
D17*
%TO.C,D26*%
X261921000Y-111974300D03*
X261921000Y-108674300D03*
%TD*%
D14*
%TO.C,MX44*%
X320992500Y-127000000D03*
D11*
X315912500Y-127000000D03*
D14*
X310832500Y-127000000D03*
D15*
X312102500Y-124460000D03*
D16*
X308552500Y-124460000D03*
X322002500Y-121920000D03*
D15*
X318452500Y-121920000D03*
%TD*%
D17*
%TO.C,D60*%
X331787500Y-150081250D03*
X331787500Y-146781250D03*
%TD*%
D14*
%TO.C,MX21*%
X177800000Y-102870000D03*
D11*
X177800000Y-107950000D03*
D14*
X177800000Y-113030000D03*
D15*
X175260000Y-111760000D03*
D37*
X175260000Y-115310000D03*
X172720000Y-101860000D03*
D15*
X172720000Y-105410000D03*
%TD*%
D17*
%TO.C,D34*%
X142875000Y-131023100D03*
X142875000Y-127723100D03*
%TD*%
%TO.C,D51*%
X176212500Y-150081250D03*
X176212500Y-146781250D03*
%TD*%
%TO.C,D48*%
X119062500Y-150071900D03*
X119062500Y-146771900D03*
%TD*%
D14*
%TO.C,MX59*%
X325755000Y-146050000D03*
D11*
X320675000Y-146050000D03*
D14*
X315595000Y-146050000D03*
D15*
X316865000Y-143510000D03*
D16*
X313315000Y-143510000D03*
X326765000Y-140970000D03*
D15*
X323215000Y-140970000D03*
%TD*%
D17*
%TO.C,D54*%
X233347800Y-150071900D03*
X233347800Y-146771900D03*
%TD*%
%TO.C,D2*%
X98425000Y-85787500D03*
X98425000Y-82487500D03*
%TD*%
%TO.C,D74*%
X328612500Y-169131250D03*
X328612500Y-165831250D03*
%TD*%
D20*
%TO.C,C1*%
X103362501Y-115500000D03*
X101637499Y-115500000D03*
%TD*%
D14*
%TO.C,MX43*%
X301942500Y-127000000D03*
D11*
X296862500Y-127000000D03*
D14*
X291782500Y-127000000D03*
D15*
X293052500Y-124460000D03*
D16*
X289502500Y-124460000D03*
X302952500Y-121920000D03*
D15*
X299402500Y-121920000D03*
%TD*%
D14*
%TO.C,MX75*%
X344805000Y-165100000D03*
D11*
X339725000Y-165100000D03*
D14*
X334645000Y-165100000D03*
D15*
X335915000Y-162560000D03*
D16*
X332365000Y-162560000D03*
X345815000Y-160020000D03*
D15*
X342265000Y-160020000D03*
%TD*%
D18*
%TO.C,C5*%
X89000000Y-120137499D03*
X89000000Y-121862501D03*
%TD*%
D17*
%TO.C,D32*%
X107950000Y-131023100D03*
X107950000Y-127723100D03*
%TD*%
D18*
%TO.C,R4*%
X89693750Y-84068750D03*
X89693750Y-85793750D03*
%TD*%
D20*
%TO.C,C11*%
X98862500Y-97500000D03*
X97137500Y-97500000D03*
%TD*%
D38*
%TO.C,U1*%
X84162000Y-111003999D03*
X84662000Y-111004000D03*
X85162000Y-111004000D03*
X85662000Y-111004000D03*
X86162000Y-111004000D03*
X86662000Y-111003999D03*
X87162000Y-111004000D03*
X87662000Y-111004000D03*
X88162000Y-111004000D03*
X88662000Y-111004000D03*
X89162000Y-111003999D03*
D39*
X90099501Y-111941500D03*
X90099500Y-112441500D03*
X90099500Y-112941500D03*
X90099500Y-113441500D03*
X90099500Y-113941500D03*
X90099501Y-114441500D03*
X90099500Y-114941500D03*
X90099500Y-115441500D03*
X90099500Y-115941500D03*
X90099500Y-116441500D03*
X90099501Y-116941500D03*
D38*
X89162000Y-117879001D03*
X88662000Y-117879000D03*
X88162000Y-117879000D03*
X87662000Y-117879000D03*
X87162000Y-117879000D03*
X86662000Y-117879001D03*
X86162000Y-117879000D03*
X85662000Y-117879000D03*
X85162000Y-117879000D03*
X84662000Y-117879000D03*
X84162000Y-117879001D03*
D39*
X83224499Y-116941500D03*
X83224500Y-116441500D03*
X83224500Y-115941500D03*
X83224500Y-115441500D03*
X83224500Y-114941500D03*
X83224499Y-114441500D03*
X83224500Y-113941500D03*
X83224500Y-113441500D03*
X83224500Y-112941500D03*
X83224500Y-112441500D03*
X83224499Y-111941500D03*
D40*
X86662000Y-114441500D03*
%TD*%
D14*
%TO.C,MX37*%
X192087500Y-121920000D03*
D11*
X192087500Y-127000000D03*
D14*
X192087500Y-132080000D03*
D15*
X189547500Y-130810000D03*
D37*
X189547500Y-134360000D03*
X187007500Y-120910000D03*
D15*
X187007500Y-124460000D03*
%TD*%
D17*
%TO.C,D12*%
X290494200Y-92925500D03*
X290494200Y-89625500D03*
%TD*%
D19*
%TO.C,R5*%
X81780240Y-98780240D03*
X83000000Y-100000000D03*
%TD*%
D17*
%TO.C,D65*%
X157162500Y-169120700D03*
X157162500Y-165820700D03*
%TD*%
%TO.C,D7*%
X195262500Y-92925500D03*
X195262500Y-89625500D03*
%TD*%
%TO.C,D19*%
X147637500Y-111974300D03*
X147637500Y-108674300D03*
%TD*%
D14*
%TO.C,MX36*%
X178117500Y-127000000D03*
D11*
X173037500Y-127000000D03*
D14*
X167957500Y-127000000D03*
D15*
X169227500Y-124460000D03*
D16*
X165677500Y-124460000D03*
X179127500Y-121920000D03*
D15*
X175577500Y-121920000D03*
%TD*%
D17*
%TO.C,D31*%
X104775000Y-131023100D03*
X104775000Y-127723100D03*
%TD*%
D14*
%TO.C,MX11*%
X268605000Y-88900000D03*
D11*
X263525000Y-88900000D03*
D14*
X258445000Y-88900000D03*
D15*
X259715000Y-86360000D03*
D16*
X256165000Y-86360000D03*
X269615000Y-83820000D03*
D15*
X266065000Y-83820000D03*
%TD*%
D17*
%TO.C,D20*%
X150803000Y-111974300D03*
X150803000Y-108674300D03*
%TD*%
D14*
%TO.C,MX61*%
X78105000Y-165100000D03*
D11*
X73025000Y-165100000D03*
D14*
X67945000Y-165100000D03*
D15*
X69215000Y-162560000D03*
D16*
X65665000Y-162560000D03*
X79115000Y-160020000D03*
D15*
X75565000Y-160020000D03*
%TD*%
D14*
%TO.C,MX27*%
X278130000Y-107950000D03*
D11*
X273050000Y-107950000D03*
D14*
X267970000Y-107950000D03*
D15*
X269240000Y-105410000D03*
D16*
X265690000Y-105410000D03*
X279140000Y-102870000D03*
D15*
X275590000Y-102870000D03*
%TD*%
D41*
%TO.C,J2*%
X109087500Y-95237500D03*
X109087500Y-96437500D03*
X109087500Y-97637500D03*
X109087500Y-98837500D03*
D42*
X112712500Y-94062500D03*
X112712500Y-100012500D03*
%TD*%
D21*
%TO.C,R7*%
X190500000Y-95318750D03*
X190500000Y-93593750D03*
%TD*%
D17*
%TO.C,D1*%
X95250000Y-85787500D03*
X95250000Y-82487500D03*
%TD*%
%TO.C,D41*%
X266683200Y-131023100D03*
X266683200Y-127723100D03*
%TD*%
D14*
%TO.C,MX47*%
X97155000Y-146050000D03*
D11*
X92075000Y-146050000D03*
D14*
X86995000Y-146050000D03*
D15*
X88265000Y-143510000D03*
D16*
X84715000Y-143510000D03*
X98165000Y-140970000D03*
D15*
X94615000Y-140970000D03*
%TD*%
D14*
%TO.C,MX3*%
X116205000Y-88900000D03*
D11*
X111125000Y-88900000D03*
D14*
X106045000Y-88900000D03*
D15*
X107315000Y-86360000D03*
D16*
X103765000Y-86360000D03*
X117215000Y-83820000D03*
D15*
X113665000Y-83820000D03*
%TD*%
D14*
%TO.C,MX33*%
X120967500Y-127000000D03*
D11*
X115887500Y-127000000D03*
D14*
X110807500Y-127000000D03*
D15*
X112077500Y-124460000D03*
D16*
X108527500Y-124460000D03*
X121977500Y-121920000D03*
D15*
X118427500Y-121920000D03*
%TD*%
D17*
%TO.C,D33*%
X123825000Y-131023100D03*
X123825000Y-127723100D03*
%TD*%
%TO.C,D71*%
X271462500Y-169120700D03*
X271462500Y-165820700D03*
%TD*%
D43*
%TO.C,U4*%
X184267500Y-102537500D03*
X186067500Y-102537500D03*
X187867500Y-102537500D03*
X189667500Y-102537500D03*
X191467500Y-102537500D03*
X193267500Y-102537500D03*
X195067500Y-102537500D03*
X196867500Y-102537500D03*
D44*
X188337500Y-116537500D03*
X190837500Y-116537500D03*
X193337500Y-116537500D03*
X195837500Y-116537500D03*
%TD*%
D14*
%TO.C,MX49*%
X135255000Y-146050000D03*
D11*
X130175000Y-146050000D03*
D14*
X125095000Y-146050000D03*
D15*
X126365000Y-143510000D03*
D16*
X122815000Y-143510000D03*
X136265000Y-140970000D03*
D15*
X132715000Y-140970000D03*
%TD*%
D17*
%TO.C,D16*%
X69845600Y-111974300D03*
X69845600Y-108674300D03*
%TD*%
D14*
%TO.C,MX64*%
X135255000Y-165100000D03*
D11*
X130175000Y-165100000D03*
D14*
X125095000Y-165100000D03*
D15*
X126365000Y-162560000D03*
D16*
X122815000Y-162560000D03*
X136265000Y-160020000D03*
D15*
X132715000Y-160020000D03*
%TD*%
D45*
%TO.C,F1*%
X103987500Y-98500000D03*
X101012500Y-98500000D03*
%TD*%
D14*
%TO.C,MX60*%
X344805000Y-146050000D03*
D11*
X339725000Y-146050000D03*
D14*
X334645000Y-146050000D03*
D15*
X335915000Y-143510000D03*
D16*
X332365000Y-143510000D03*
X345815000Y-140970000D03*
D15*
X342265000Y-140970000D03*
%TD*%
D14*
%TO.C,MX39*%
X220662500Y-132080000D03*
D11*
X220662500Y-127000000D03*
D14*
X220662500Y-121920000D03*
D15*
X223202500Y-123190000D03*
D24*
X223202500Y-119640000D03*
X225742500Y-133090000D03*
D15*
X225742500Y-129540000D03*
%TD*%
D14*
%TO.C,MX13*%
X306705000Y-88900000D03*
D11*
X301625000Y-88900000D03*
D14*
X296545000Y-88900000D03*
D15*
X297815000Y-86360000D03*
D16*
X294265000Y-86360000D03*
X307715000Y-83820000D03*
D15*
X304165000Y-83820000D03*
%TD*%
D14*
%TO.C,MX9*%
X230505000Y-88900000D03*
D11*
X225425000Y-88900000D03*
D14*
X220345000Y-88900000D03*
D15*
X221615000Y-86360000D03*
D16*
X218065000Y-86360000D03*
X231515000Y-83820000D03*
D15*
X227965000Y-83820000D03*
%TD*%
D14*
%TO.C,MX34*%
X140017500Y-127000000D03*
D11*
X134937500Y-127000000D03*
D14*
X129857500Y-127000000D03*
D15*
X131127500Y-124460000D03*
D16*
X127577500Y-124460000D03*
X141027500Y-121920000D03*
D15*
X137477500Y-121920000D03*
%TD*%
D14*
%TO.C,MX63*%
X116205000Y-165100000D03*
D11*
X111125000Y-165100000D03*
D14*
X106045000Y-165100000D03*
D15*
X107315000Y-162560000D03*
D16*
X103765000Y-162560000D03*
X117215000Y-160020000D03*
D15*
X113665000Y-160020000D03*
%TD*%
D14*
%TO.C,MX53*%
X211442000Y-146039600D03*
D11*
X206362000Y-146039600D03*
D14*
X201282000Y-146039600D03*
D15*
X202552000Y-143499600D03*
D16*
X199002000Y-143499600D03*
X212452000Y-140959600D03*
D15*
X208902000Y-140959600D03*
%TD*%
D17*
%TO.C,D11*%
X271445400Y-92925500D03*
X271445400Y-89625500D03*
%TD*%
D20*
%TO.C,C3*%
X89762501Y-104378125D03*
X88037499Y-104378125D03*
%TD*%
D14*
%TO.C,MX74*%
X325755000Y-165100000D03*
D11*
X320675000Y-165100000D03*
D14*
X315595000Y-165100000D03*
D15*
X316865000Y-162560000D03*
D16*
X313315000Y-162560000D03*
X326765000Y-160020000D03*
D15*
X323215000Y-160020000D03*
%TD*%
D14*
%TO.C,MX4*%
X135255000Y-88900000D03*
D11*
X130175000Y-88900000D03*
D14*
X125095000Y-88900000D03*
D15*
X126365000Y-86360000D03*
D16*
X122815000Y-86360000D03*
X136265000Y-83820000D03*
D15*
X132715000Y-83820000D03*
%TD*%
D17*
%TO.C,D28*%
X300018600Y-111974300D03*
X300018600Y-108674300D03*
%TD*%
D14*
%TO.C,MX52*%
X192405000Y-146050000D03*
D11*
X187325000Y-146050000D03*
D14*
X182245000Y-146050000D03*
D15*
X183515000Y-143510000D03*
D16*
X179965000Y-143510000D03*
X193415000Y-140970000D03*
D15*
X189865000Y-140970000D03*
%TD*%
D14*
%TO.C,MX55*%
X249555000Y-146050000D03*
D11*
X244475000Y-146050000D03*
D14*
X239395000Y-146050000D03*
D15*
X240665000Y-143510000D03*
D16*
X237115000Y-143510000D03*
X250565000Y-140970000D03*
D15*
X247015000Y-140970000D03*
%TD*%
D14*
%TO.C,MX25*%
X240030000Y-107950000D03*
D11*
X234950000Y-107950000D03*
D14*
X229870000Y-107950000D03*
D15*
X231140000Y-105410000D03*
D16*
X227590000Y-105410000D03*
X241040000Y-102870000D03*
D15*
X237490000Y-102870000D03*
%TD*%
D14*
%TO.C,MX72*%
X287655000Y-165100000D03*
D11*
X282575000Y-165100000D03*
D14*
X277495000Y-165100000D03*
D15*
X278765000Y-162560000D03*
D16*
X275215000Y-162560000D03*
X288665000Y-160020000D03*
D15*
X285115000Y-160020000D03*
%TD*%
D18*
%TO.C,C9*%
X192484375Y-93593750D03*
X192484375Y-95318750D03*
%TD*%
D14*
%TO.C,MX30*%
X340042500Y-107950000D03*
D11*
X334962500Y-107950000D03*
D14*
X329882500Y-107950000D03*
D15*
X331152500Y-105410000D03*
D16*
X327602500Y-105410000D03*
X341052500Y-102870000D03*
D15*
X337502500Y-102870000D03*
%TD*%
D17*
%TO.C,D64*%
X138112500Y-169120700D03*
X138112500Y-165820700D03*
%TD*%
D14*
%TO.C,MX58*%
X306705000Y-146050000D03*
D11*
X301625000Y-146050000D03*
D14*
X296545000Y-146050000D03*
D15*
X297815000Y-143510000D03*
D16*
X294265000Y-143510000D03*
X307715000Y-140970000D03*
D15*
X304165000Y-140970000D03*
%TD*%
D14*
%TO.C,MX68*%
X211442000Y-165089600D03*
D11*
X206362000Y-165089600D03*
D14*
X201282000Y-165089600D03*
D15*
X202552000Y-162549600D03*
D16*
X199002000Y-162549600D03*
X212452000Y-160009600D03*
D15*
X208902000Y-160009600D03*
%TD*%
D14*
%TO.C,MX17*%
X106680000Y-107950000D03*
D11*
X101600000Y-107950000D03*
D14*
X96520000Y-107950000D03*
D15*
X97790000Y-105410000D03*
D16*
X94240000Y-105410000D03*
X107690000Y-102870000D03*
D15*
X104140000Y-102870000D03*
%TD*%
D17*
%TO.C,D45*%
X327004400Y-131023100D03*
X327004400Y-127723100D03*
%TD*%
D18*
%TO.C,R3*%
X74612500Y-84137500D03*
X74612500Y-85862500D03*
%TD*%
D14*
%TO.C,MX28*%
X297180000Y-107950000D03*
D11*
X292100000Y-107950000D03*
D14*
X287020000Y-107950000D03*
D15*
X288290000Y-105410000D03*
D16*
X284740000Y-105410000D03*
X298190000Y-102870000D03*
D15*
X294640000Y-102870000D03*
%TD*%
D14*
%TO.C,MX62*%
X97155000Y-165100000D03*
D11*
X92075000Y-165100000D03*
D14*
X86995000Y-165100000D03*
D15*
X88265000Y-162560000D03*
D16*
X84715000Y-162560000D03*
X98165000Y-160020000D03*
D15*
X94615000Y-160020000D03*
%TD*%
D14*
%TO.C,MX6*%
X173355000Y-88900000D03*
D11*
X168275000Y-88900000D03*
D14*
X163195000Y-88900000D03*
D15*
X164465000Y-86360000D03*
D16*
X160915000Y-86360000D03*
X174365000Y-83820000D03*
D15*
X170815000Y-83820000D03*
%TD*%
D17*
%TO.C,D9*%
X233347800Y-92925500D03*
X233347800Y-89625500D03*
%TD*%
M02*
