%TF.GenerationSoftware,KiCad,Pcbnew,7.0.10*%
%TF.CreationDate,2024-02-28T07:57:36+01:00*%
%TF.ProjectId,keyboard-template-60,6b657962-6f61-4726-942d-74656d706c61,rev?*%
%TF.SameCoordinates,Original*%
%TF.FileFunction,Legend,Top*%
%TF.FilePolarity,Positive*%
%FSLAX46Y46*%
G04 Gerber Fmt 4.6, Leading zero omitted, Abs format (unit mm)*
G04 Created by KiCad (PCBNEW 7.0.10) date 2024-02-28 07:57:36*
%MOMM*%
%LPD*%
G01*
G04 APERTURE LIST*
%ADD10C,0.150000*%
%ADD11C,0.120000*%
%ADD12C,3.048000*%
%ADD13C,3.987800*%
%ADD14C,2.600000*%
%ADD15C,4.400000*%
%ADD16R,1.700000X1.700000*%
%ADD17O,1.700000X1.700000*%
%ADD18C,1.750000*%
%ADD19C,3.300000*%
%ADD20C,0.650000*%
%ADD21O,1.000000X1.600000*%
%ADD22O,1.000000X2.100000*%
G04 APERTURE END LIST*
D10*
X291338095Y-152829819D02*
X291338095Y-151829819D01*
X291338095Y-152306009D02*
X291909523Y-152306009D01*
X291909523Y-152829819D02*
X291909523Y-151829819D01*
X292814285Y-151829819D02*
X292623809Y-151829819D01*
X292623809Y-151829819D02*
X292528571Y-151877438D01*
X292528571Y-151877438D02*
X292480952Y-151925057D01*
X292480952Y-151925057D02*
X292385714Y-152067914D01*
X292385714Y-152067914D02*
X292338095Y-152258390D01*
X292338095Y-152258390D02*
X292338095Y-152639342D01*
X292338095Y-152639342D02*
X292385714Y-152734580D01*
X292385714Y-152734580D02*
X292433333Y-152782200D01*
X292433333Y-152782200D02*
X292528571Y-152829819D01*
X292528571Y-152829819D02*
X292719047Y-152829819D01*
X292719047Y-152829819D02*
X292814285Y-152782200D01*
X292814285Y-152782200D02*
X292861904Y-152734580D01*
X292861904Y-152734580D02*
X292909523Y-152639342D01*
X292909523Y-152639342D02*
X292909523Y-152401247D01*
X292909523Y-152401247D02*
X292861904Y-152306009D01*
X292861904Y-152306009D02*
X292814285Y-152258390D01*
X292814285Y-152258390D02*
X292719047Y-152210771D01*
X292719047Y-152210771D02*
X292528571Y-152210771D01*
X292528571Y-152210771D02*
X292433333Y-152258390D01*
X292433333Y-152258390D02*
X292385714Y-152306009D01*
X292385714Y-152306009D02*
X292338095Y-152401247D01*
X119888095Y-95679819D02*
X119888095Y-94679819D01*
X119888095Y-95156009D02*
X120459523Y-95156009D01*
X120459523Y-95679819D02*
X120459523Y-94679819D01*
X121459523Y-95679819D02*
X120888095Y-95679819D01*
X121173809Y-95679819D02*
X121173809Y-94679819D01*
X121173809Y-94679819D02*
X121078571Y-94822676D01*
X121078571Y-94822676D02*
X120983333Y-94917914D01*
X120983333Y-94917914D02*
X120888095Y-94965533D01*
X119888095Y-152829819D02*
X119888095Y-151829819D01*
X119888095Y-152306009D02*
X120459523Y-152306009D01*
X120459523Y-152829819D02*
X120459523Y-151829819D01*
X121364285Y-152163152D02*
X121364285Y-152829819D01*
X121126190Y-151782200D02*
X120888095Y-152496485D01*
X120888095Y-152496485D02*
X121507142Y-152496485D01*
X105175416Y-109738569D02*
X105175416Y-110452854D01*
X105175416Y-110452854D02*
X105127797Y-110595711D01*
X105127797Y-110595711D02*
X105032559Y-110690950D01*
X105032559Y-110690950D02*
X104889702Y-110738569D01*
X104889702Y-110738569D02*
X104794464Y-110738569D01*
X105556369Y-109738569D02*
X106175416Y-109738569D01*
X106175416Y-109738569D02*
X105842083Y-110119521D01*
X105842083Y-110119521D02*
X105984940Y-110119521D01*
X105984940Y-110119521D02*
X106080178Y-110167140D01*
X106080178Y-110167140D02*
X106127797Y-110214759D01*
X106127797Y-110214759D02*
X106175416Y-110309997D01*
X106175416Y-110309997D02*
X106175416Y-110548092D01*
X106175416Y-110548092D02*
X106127797Y-110643330D01*
X106127797Y-110643330D02*
X106080178Y-110690950D01*
X106080178Y-110690950D02*
X105984940Y-110738569D01*
X105984940Y-110738569D02*
X105699226Y-110738569D01*
X105699226Y-110738569D02*
X105603988Y-110690950D01*
X105603988Y-110690950D02*
X105556369Y-110643330D01*
X291338095Y-95679819D02*
X291338095Y-94679819D01*
X291338095Y-95156009D02*
X291909523Y-95156009D01*
X291909523Y-95679819D02*
X291909523Y-94679819D01*
X292290476Y-94679819D02*
X292909523Y-94679819D01*
X292909523Y-94679819D02*
X292576190Y-95060771D01*
X292576190Y-95060771D02*
X292719047Y-95060771D01*
X292719047Y-95060771D02*
X292814285Y-95108390D01*
X292814285Y-95108390D02*
X292861904Y-95156009D01*
X292861904Y-95156009D02*
X292909523Y-95251247D01*
X292909523Y-95251247D02*
X292909523Y-95489342D01*
X292909523Y-95489342D02*
X292861904Y-95584580D01*
X292861904Y-95584580D02*
X292814285Y-95632200D01*
X292814285Y-95632200D02*
X292719047Y-95679819D01*
X292719047Y-95679819D02*
X292433333Y-95679819D01*
X292433333Y-95679819D02*
X292338095Y-95632200D01*
X292338095Y-95632200D02*
X292290476Y-95584580D01*
X205613095Y-152829819D02*
X205613095Y-151829819D01*
X205613095Y-152306009D02*
X206184523Y-152306009D01*
X206184523Y-152829819D02*
X206184523Y-151829819D01*
X207136904Y-151829819D02*
X206660714Y-151829819D01*
X206660714Y-151829819D02*
X206613095Y-152306009D01*
X206613095Y-152306009D02*
X206660714Y-152258390D01*
X206660714Y-152258390D02*
X206755952Y-152210771D01*
X206755952Y-152210771D02*
X206994047Y-152210771D01*
X206994047Y-152210771D02*
X207089285Y-152258390D01*
X207089285Y-152258390D02*
X207136904Y-152306009D01*
X207136904Y-152306009D02*
X207184523Y-152401247D01*
X207184523Y-152401247D02*
X207184523Y-152639342D01*
X207184523Y-152639342D02*
X207136904Y-152734580D01*
X207136904Y-152734580D02*
X207089285Y-152782200D01*
X207089285Y-152782200D02*
X206994047Y-152829819D01*
X206994047Y-152829819D02*
X206755952Y-152829819D01*
X206755952Y-152829819D02*
X206660714Y-152782200D01*
X206660714Y-152782200D02*
X206613095Y-152734580D01*
X205613095Y-95679819D02*
X205613095Y-94679819D01*
X205613095Y-95156009D02*
X206184523Y-95156009D01*
X206184523Y-95679819D02*
X206184523Y-94679819D01*
X206613095Y-94775057D02*
X206660714Y-94727438D01*
X206660714Y-94727438D02*
X206755952Y-94679819D01*
X206755952Y-94679819D02*
X206994047Y-94679819D01*
X206994047Y-94679819D02*
X207089285Y-94727438D01*
X207089285Y-94727438D02*
X207136904Y-94775057D01*
X207136904Y-94775057D02*
X207184523Y-94870295D01*
X207184523Y-94870295D02*
X207184523Y-94965533D01*
X207184523Y-94965533D02*
X207136904Y-95108390D01*
X207136904Y-95108390D02*
X206565476Y-95679819D01*
X206565476Y-95679819D02*
X207184523Y-95679819D01*
%TO.C,REF\u002A\u002A*%
G36*
X207633154Y-124993665D02*
G01*
X207869758Y-124995021D01*
X208052783Y-124996576D01*
X208125883Y-124997558D01*
X208157597Y-124998302D01*
X208186435Y-124999379D01*
X208212658Y-125000911D01*
X208236526Y-125003022D01*
X208258300Y-125005835D01*
X208268483Y-125007544D01*
X208278241Y-125009474D01*
X208287606Y-125011642D01*
X208296611Y-125014062D01*
X208305288Y-125016750D01*
X208313669Y-125019721D01*
X208321788Y-125022992D01*
X208329677Y-125026576D01*
X208337369Y-125030491D01*
X208344896Y-125034750D01*
X208352291Y-125039370D01*
X208359586Y-125044365D01*
X208366814Y-125049752D01*
X208374008Y-125055546D01*
X208381200Y-125061761D01*
X208388423Y-125068414D01*
X208403092Y-125083094D01*
X208412187Y-125093176D01*
X208420716Y-125103662D01*
X208428669Y-125114527D01*
X208436037Y-125125746D01*
X208442811Y-125137295D01*
X208448982Y-125149151D01*
X208454542Y-125161287D01*
X208459481Y-125173681D01*
X208463791Y-125186307D01*
X208467463Y-125199142D01*
X208470487Y-125212160D01*
X208472855Y-125225337D01*
X208474558Y-125238649D01*
X208475587Y-125252072D01*
X208475933Y-125265580D01*
X208475587Y-125279151D01*
X208467641Y-125464632D01*
X208462565Y-125654731D01*
X208459315Y-126042639D01*
X208462416Y-126430597D01*
X208468444Y-126806326D01*
X208474394Y-127195946D01*
X208476261Y-127535542D01*
X208474961Y-127687513D01*
X208471797Y-127828096D01*
X208466488Y-127957664D01*
X208458754Y-128076590D01*
X208448312Y-128185247D01*
X208434883Y-128284008D01*
X208418185Y-128373245D01*
X208397937Y-128453332D01*
X208386394Y-128490060D01*
X208373858Y-128524641D01*
X208360294Y-128557120D01*
X208345668Y-128587545D01*
X208329943Y-128615962D01*
X208313084Y-128642417D01*
X208295058Y-128666957D01*
X208275827Y-128689630D01*
X208247469Y-128717945D01*
X208215809Y-128744268D01*
X208180751Y-128768621D01*
X208142200Y-128791027D01*
X208100061Y-128811510D01*
X208054236Y-128830091D01*
X208004631Y-128846794D01*
X207951151Y-128861642D01*
X207893698Y-128874658D01*
X207832177Y-128885863D01*
X207766494Y-128895283D01*
X207696551Y-128902938D01*
X207622254Y-128908852D01*
X207543506Y-128913048D01*
X207460212Y-128915549D01*
X207372275Y-128916378D01*
X207328354Y-128916113D01*
X207269053Y-128915287D01*
X207210846Y-128913862D01*
X207099142Y-128909561D01*
X206996096Y-128903914D01*
X206904558Y-128897625D01*
X206827382Y-128891399D01*
X206767421Y-128885938D01*
X206710552Y-128880130D01*
X206697056Y-128878259D01*
X206683814Y-128875736D01*
X206670839Y-128872578D01*
X206658148Y-128868804D01*
X206645754Y-128864432D01*
X206633672Y-128859481D01*
X206621916Y-128853968D01*
X206610503Y-128847913D01*
X206599445Y-128841333D01*
X206588758Y-128834247D01*
X206578457Y-128826674D01*
X206568556Y-128818631D01*
X206559070Y-128810138D01*
X206550014Y-128801212D01*
X206541402Y-128791871D01*
X206533248Y-128782135D01*
X206525569Y-128772021D01*
X206518377Y-128761548D01*
X206511689Y-128750735D01*
X206505518Y-128739599D01*
X206499880Y-128728159D01*
X206494789Y-128716433D01*
X206490259Y-128704440D01*
X206486306Y-128692197D01*
X206482943Y-128679725D01*
X206480187Y-128667040D01*
X206478051Y-128654161D01*
X206476550Y-128641107D01*
X206475698Y-128627895D01*
X206475511Y-128614545D01*
X206476004Y-128601074D01*
X206477190Y-128587501D01*
X206479060Y-128574005D01*
X206481581Y-128560762D01*
X206484735Y-128547788D01*
X206488505Y-128535096D01*
X206492871Y-128522702D01*
X206497816Y-128510620D01*
X206503322Y-128498865D01*
X206509370Y-128487451D01*
X206515942Y-128476394D01*
X206523019Y-128465707D01*
X206530584Y-128455406D01*
X206538619Y-128445505D01*
X206547104Y-128436019D01*
X206556023Y-128426962D01*
X206565356Y-128418350D01*
X206575086Y-128410197D01*
X206585194Y-128402517D01*
X206595662Y-128395326D01*
X206606471Y-128388637D01*
X206617605Y-128382467D01*
X206629044Y-128376828D01*
X206640770Y-128371737D01*
X206652765Y-128367207D01*
X206665011Y-128363254D01*
X206677489Y-128359892D01*
X206690182Y-128357135D01*
X206703071Y-128354999D01*
X206716137Y-128353498D01*
X206729364Y-128352647D01*
X206742732Y-128352460D01*
X206756223Y-128352952D01*
X206769819Y-128354138D01*
X206857760Y-128363207D01*
X206946234Y-128370781D01*
X207034604Y-128376879D01*
X207122231Y-128381518D01*
X207208477Y-128384717D01*
X207292703Y-128386494D01*
X207374271Y-128386867D01*
X207452543Y-128385855D01*
X207526880Y-128383475D01*
X207596644Y-128379746D01*
X207661197Y-128374686D01*
X207719900Y-128368314D01*
X207772115Y-128360647D01*
X207817204Y-128351704D01*
X207854529Y-128341502D01*
X207883450Y-128330061D01*
X207897268Y-128289572D01*
X207909051Y-128236445D01*
X207918940Y-128171840D01*
X207927077Y-128096918D01*
X207938660Y-127920760D01*
X207944932Y-127717253D01*
X207947025Y-127495675D01*
X207946069Y-127265307D01*
X207939542Y-126815322D01*
X207934358Y-126501774D01*
X207930811Y-126177808D01*
X207930835Y-125849873D01*
X207936367Y-125524419D01*
X206358921Y-125520451D01*
X206360716Y-125631816D01*
X206359988Y-125757575D01*
X206355898Y-125896270D01*
X206347610Y-126046442D01*
X206334287Y-126206636D01*
X206315091Y-126375394D01*
X206289186Y-126551258D01*
X206255733Y-126732771D01*
X206210362Y-126932466D01*
X206157252Y-127124868D01*
X206096493Y-127309854D01*
X206028171Y-127487301D01*
X205952376Y-127657085D01*
X205869194Y-127819082D01*
X205778715Y-127973168D01*
X205681026Y-128119221D01*
X205576214Y-128257116D01*
X205464369Y-128386730D01*
X205345577Y-128507939D01*
X205219927Y-128620619D01*
X205087507Y-128724647D01*
X204948405Y-128819899D01*
X204802709Y-128906252D01*
X204650507Y-128983582D01*
X204643689Y-128986698D01*
X204636831Y-128989599D01*
X204629938Y-128992288D01*
X204623011Y-128994764D01*
X204616054Y-128997032D01*
X204609072Y-128999092D01*
X204602067Y-129000947D01*
X204595043Y-129002599D01*
X204588004Y-129004048D01*
X204580953Y-129005299D01*
X204573893Y-129006351D01*
X204566828Y-129007208D01*
X204559762Y-129007871D01*
X204552697Y-129008343D01*
X204545638Y-129008624D01*
X204538588Y-129008717D01*
X204529275Y-129008553D01*
X204519996Y-129008061D01*
X204510758Y-129007245D01*
X204501570Y-129006108D01*
X204492441Y-129004653D01*
X204483378Y-129002883D01*
X204474392Y-129000801D01*
X204465488Y-128998411D01*
X204456678Y-128995714D01*
X204447967Y-128992715D01*
X204439366Y-128989416D01*
X204430883Y-128985821D01*
X204422525Y-128981932D01*
X204414302Y-128977752D01*
X204406222Y-128973285D01*
X204398293Y-128968534D01*
X204390523Y-128963501D01*
X204382922Y-128958190D01*
X204375497Y-128952603D01*
X204368257Y-128946744D01*
X204361211Y-128940616D01*
X204354366Y-128934222D01*
X204347732Y-128927565D01*
X204341316Y-128920648D01*
X204335128Y-128913474D01*
X204329175Y-128906046D01*
X204323466Y-128898367D01*
X204318009Y-128890441D01*
X204312813Y-128882269D01*
X204307887Y-128873856D01*
X204303238Y-128865205D01*
X204298875Y-128856317D01*
X204293395Y-128843844D01*
X204288605Y-128831245D01*
X204284498Y-128818540D01*
X204281066Y-128805754D01*
X204278301Y-128792907D01*
X204276195Y-128780023D01*
X204274739Y-128767123D01*
X204273926Y-128754229D01*
X204273747Y-128741364D01*
X204274195Y-128728550D01*
X204275261Y-128715809D01*
X204276937Y-128703164D01*
X204279215Y-128690635D01*
X204282088Y-128678247D01*
X204285546Y-128666020D01*
X204289582Y-128653977D01*
X204294188Y-128642140D01*
X204299355Y-128630532D01*
X204305076Y-128619174D01*
X204311342Y-128608089D01*
X204318146Y-128597299D01*
X204325479Y-128586826D01*
X204333333Y-128576693D01*
X204341701Y-128566921D01*
X204350573Y-128557532D01*
X204359942Y-128548550D01*
X204369800Y-128539996D01*
X204380139Y-128531891D01*
X204390951Y-128524260D01*
X204402227Y-128517123D01*
X204413959Y-128510503D01*
X204426140Y-128504421D01*
X204548284Y-128442330D01*
X204663238Y-128374195D01*
X204771218Y-128300421D01*
X204872436Y-128221410D01*
X204967106Y-128137567D01*
X205055442Y-128049293D01*
X205137657Y-127956994D01*
X205213966Y-127861070D01*
X205284581Y-127761927D01*
X205349718Y-127659968D01*
X205409588Y-127555595D01*
X205464407Y-127449211D01*
X205514387Y-127341221D01*
X205559743Y-127232027D01*
X205637435Y-127011642D01*
X205699194Y-126791282D01*
X205746729Y-126574172D01*
X205781748Y-126363540D01*
X205805963Y-126162611D01*
X205821082Y-125974611D01*
X205828814Y-125802767D01*
X205828961Y-125520451D01*
X204538588Y-125521244D01*
X204538323Y-125521244D01*
X204524715Y-125520901D01*
X204511287Y-125519880D01*
X204498054Y-125518200D01*
X204485033Y-125515877D01*
X204472241Y-125512927D01*
X204459695Y-125509367D01*
X204447411Y-125505213D01*
X204435405Y-125500483D01*
X204423693Y-125495192D01*
X204412294Y-125489357D01*
X204401222Y-125482995D01*
X204390495Y-125476122D01*
X204380129Y-125468754D01*
X204370141Y-125460910D01*
X204360546Y-125452604D01*
X204351362Y-125443854D01*
X204342605Y-125434676D01*
X204334292Y-125425086D01*
X204326439Y-125415102D01*
X204319063Y-125404740D01*
X204312180Y-125394016D01*
X204305806Y-125382947D01*
X204299959Y-125371550D01*
X204294654Y-125359840D01*
X204289909Y-125347836D01*
X204285740Y-125335552D01*
X204282163Y-125323007D01*
X204279194Y-125310215D01*
X204276852Y-125297195D01*
X204275150Y-125283962D01*
X204274108Y-125270534D01*
X204273740Y-125256926D01*
X204274060Y-125243317D01*
X204275057Y-125229886D01*
X204276716Y-125216649D01*
X204279020Y-125203624D01*
X204281952Y-125190826D01*
X204285496Y-125178273D01*
X204289635Y-125165980D01*
X204294353Y-125153966D01*
X204299632Y-125142245D01*
X204305457Y-125130835D01*
X204311811Y-125119752D01*
X204318677Y-125109014D01*
X204326039Y-125098636D01*
X204333879Y-125088635D01*
X204342183Y-125079028D01*
X204350932Y-125069832D01*
X204360111Y-125061063D01*
X204369703Y-125052738D01*
X204379691Y-125044872D01*
X204390058Y-125037484D01*
X204400789Y-125030590D01*
X204411867Y-125024205D01*
X204423274Y-125018348D01*
X204434995Y-125013034D01*
X204447013Y-125008279D01*
X204459311Y-125004102D01*
X204471873Y-125000518D01*
X204484682Y-124997544D01*
X204497722Y-124995196D01*
X204510976Y-124993491D01*
X204524427Y-124992446D01*
X204538059Y-124992078D01*
X206370034Y-124991284D01*
X207633154Y-124993665D01*
G37*
D11*
%TO.C,J3*%
X98583750Y-111283750D02*
X99853750Y-111283750D01*
X98583750Y-112553750D02*
X98583750Y-111283750D01*
X100896679Y-114713750D02*
X101350821Y-114713750D01*
X100896679Y-115473750D02*
X101350821Y-115473750D01*
X100896679Y-117253750D02*
X101350821Y-117253750D01*
X100896679Y-118013750D02*
X101350821Y-118013750D01*
X100963750Y-112173750D02*
X101350821Y-112173750D01*
X100963750Y-112933750D02*
X101350821Y-112933750D01*
X103436679Y-112173750D02*
X103833750Y-112173750D01*
X103436679Y-112933750D02*
X103833750Y-112933750D01*
X103436679Y-114713750D02*
X103833750Y-114713750D01*
X103436679Y-115473750D02*
X103833750Y-115473750D01*
X103436679Y-117253750D02*
X103833750Y-117253750D01*
X103436679Y-118013750D02*
X103833750Y-118013750D01*
X103833750Y-111223750D02*
X103833750Y-118963750D01*
X103833750Y-113823750D02*
X106493750Y-113823750D01*
X103833750Y-116363750D02*
X106493750Y-116363750D01*
X103833750Y-118963750D02*
X106493750Y-118963750D01*
X106493750Y-111223750D02*
X103833750Y-111223750D01*
X106493750Y-112173750D02*
X112493750Y-112173750D01*
X106493750Y-112233750D02*
X112493750Y-112233750D01*
X106493750Y-112353750D02*
X112493750Y-112353750D01*
X106493750Y-112473750D02*
X112493750Y-112473750D01*
X106493750Y-112593750D02*
X112493750Y-112593750D01*
X106493750Y-112713750D02*
X112493750Y-112713750D01*
X106493750Y-112833750D02*
X112493750Y-112833750D01*
X106493750Y-114713750D02*
X112493750Y-114713750D01*
X106493750Y-117253750D02*
X112493750Y-117253750D01*
X106493750Y-118963750D02*
X106493750Y-111223750D01*
X112493750Y-112173750D02*
X112493750Y-112933750D01*
X112493750Y-112933750D02*
X106493750Y-112933750D01*
X112493750Y-114713750D02*
X112493750Y-115473750D01*
X112493750Y-115473750D02*
X106493750Y-115473750D01*
X112493750Y-117253750D02*
X112493750Y-118013750D01*
X112493750Y-118013750D02*
X106493750Y-118013750D01*
%TD*%
%LPC*%
D12*
%TO.C,S2*%
X246856250Y-172085000D03*
D13*
X246856250Y-156845000D03*
D12*
X223043750Y-172085000D03*
D13*
X223043750Y-156845000D03*
%TD*%
D14*
%TO.C,H6*%
X292100000Y-155575000D03*
D15*
X292100000Y-155575000D03*
%TD*%
D14*
%TO.C,H1*%
X120650000Y-98425000D03*
D15*
X120650000Y-98425000D03*
%TD*%
D14*
%TO.C,H4*%
X120650000Y-155575000D03*
D15*
X120650000Y-155575000D03*
%TD*%
D12*
%TO.C,S3*%
X263525000Y-172085000D03*
D13*
X263525000Y-156845000D03*
D12*
X149225000Y-172085000D03*
D13*
X149225000Y-156845000D03*
%TD*%
D16*
%TO.C,J3*%
X99853750Y-112553750D03*
D17*
X102393750Y-112553750D03*
X99853750Y-115093750D03*
X102393750Y-115093750D03*
X99853750Y-117633750D03*
X102393750Y-117633750D03*
%TD*%
D12*
%TO.C,S1*%
X189706250Y-172085000D03*
D13*
X189706250Y-156845000D03*
D12*
X165893750Y-172085000D03*
D13*
X165893750Y-156845000D03*
%TD*%
D14*
%TO.C,H3*%
X292100000Y-98425000D03*
D15*
X292100000Y-98425000D03*
%TD*%
D14*
%TO.C,H5*%
X206375000Y-155575000D03*
D15*
X206375000Y-155575000D03*
%TD*%
D14*
%TO.C,H2*%
X206375000Y-98425000D03*
D15*
X206375000Y-98425000D03*
%TD*%
D18*
%TO.C,MX56*%
X268605000Y-146050000D03*
D13*
X263525000Y-146050000D03*
D18*
X258445000Y-146050000D03*
D19*
X259715000Y-143510000D03*
X266065000Y-140970000D03*
%TD*%
D18*
%TO.C,MX73*%
X306705000Y-165100000D03*
D13*
X301625000Y-165100000D03*
D18*
X296545000Y-165100000D03*
D19*
X297815000Y-162560000D03*
X304165000Y-160020000D03*
%TD*%
D18*
%TO.C,MX39*%
X215582500Y-127000000D03*
D13*
X220662500Y-127000000D03*
D18*
X225742500Y-127000000D03*
D19*
X224472500Y-129540000D03*
X218122500Y-132080000D03*
%TD*%
D18*
%TO.C,MX19*%
X144780000Y-107950000D03*
D13*
X139700000Y-107950000D03*
D18*
X134620000Y-107950000D03*
D19*
X135890000Y-105410000D03*
X142240000Y-102870000D03*
%TD*%
D18*
%TO.C,MX45*%
X342423750Y-127000000D03*
D13*
X337343750Y-127000000D03*
D18*
X332263750Y-127000000D03*
D19*
X333533750Y-124460000D03*
X339883750Y-121920000D03*
%TD*%
D18*
%TO.C,MX5*%
X154305000Y-88900000D03*
D13*
X149225000Y-88900000D03*
D18*
X144145000Y-88900000D03*
D19*
X145415000Y-86360000D03*
X151765000Y-83820000D03*
%TD*%
D18*
%TO.C,MX16*%
X82867500Y-107950000D03*
D13*
X77787500Y-107950000D03*
D18*
X72707500Y-107950000D03*
D19*
X73977500Y-105410000D03*
X80327500Y-102870000D03*
%TD*%
D18*
%TO.C,MX51*%
X173355000Y-146050000D03*
D13*
X168275000Y-146050000D03*
D18*
X163195000Y-146050000D03*
D19*
X164465000Y-143510000D03*
X170815000Y-140970000D03*
%TD*%
D18*
%TO.C,MX40*%
X244792500Y-127000000D03*
D13*
X239712500Y-127000000D03*
D18*
X234632500Y-127000000D03*
D19*
X235902500Y-124460000D03*
X242252500Y-121920000D03*
%TD*%
D18*
%TO.C,MX8*%
X211455000Y-88900000D03*
D13*
X206375000Y-88900000D03*
D18*
X201295000Y-88900000D03*
D19*
X202565000Y-86360000D03*
X208915000Y-83820000D03*
%TD*%
D18*
%TO.C,MX7*%
X192405000Y-88900000D03*
D13*
X187325000Y-88900000D03*
D18*
X182245000Y-88900000D03*
D19*
X183515000Y-86360000D03*
X189865000Y-83820000D03*
%TD*%
D18*
%TO.C,MX26*%
X259080000Y-107950000D03*
D13*
X254000000Y-107950000D03*
D18*
X248920000Y-107950000D03*
D19*
X250190000Y-105410000D03*
X256540000Y-102870000D03*
%TD*%
D18*
%TO.C,MX68*%
X211455000Y-165100000D03*
D13*
X206375000Y-165100000D03*
D18*
X201295000Y-165100000D03*
D19*
X202565000Y-162560000D03*
X208915000Y-160020000D03*
%TD*%
D18*
%TO.C,MX41*%
X263842500Y-127000000D03*
D13*
X258762500Y-127000000D03*
D18*
X253682500Y-127000000D03*
D19*
X254952500Y-124460000D03*
X261302500Y-121920000D03*
%TD*%
D18*
%TO.C,MX48*%
X116205000Y-146050000D03*
D13*
X111125000Y-146050000D03*
D18*
X106045000Y-146050000D03*
D19*
X107315000Y-143510000D03*
X113665000Y-140970000D03*
%TD*%
D18*
%TO.C,MX65*%
X154305000Y-165100000D03*
D13*
X149225000Y-165100000D03*
D18*
X144145000Y-165100000D03*
D19*
X145415000Y-162560000D03*
X151765000Y-160020000D03*
%TD*%
D18*
%TO.C,MX22*%
X201930000Y-107950000D03*
D13*
X196850000Y-107950000D03*
D18*
X191770000Y-107950000D03*
D19*
X193040000Y-105410000D03*
X199390000Y-102870000D03*
%TD*%
D18*
%TO.C,MX69*%
X240030000Y-165100000D03*
D13*
X234950000Y-165100000D03*
D18*
X229870000Y-165100000D03*
D19*
X231140000Y-162560000D03*
X237490000Y-160020000D03*
%TD*%
D18*
%TO.C,MX35*%
X159067500Y-127000000D03*
D13*
X153987500Y-127000000D03*
D18*
X148907500Y-127000000D03*
D19*
X150177500Y-124460000D03*
X156527500Y-121920000D03*
%TD*%
D18*
%TO.C,MX32*%
X101917500Y-127000000D03*
D13*
X96837500Y-127000000D03*
D18*
X91757500Y-127000000D03*
D19*
X93027500Y-124460000D03*
X99377500Y-121920000D03*
%TD*%
D18*
%TO.C,MX2*%
X86995000Y-88900000D03*
D13*
X92075000Y-88900000D03*
D18*
X97155000Y-88900000D03*
D19*
X95885000Y-91440000D03*
X89535000Y-93980000D03*
%TD*%
D18*
%TO.C,MX14*%
X325755000Y-88900000D03*
D13*
X320675000Y-88900000D03*
D18*
X315595000Y-88900000D03*
D19*
X316865000Y-86360000D03*
X323215000Y-83820000D03*
%TD*%
D18*
%TO.C,MX67*%
X182880000Y-165100000D03*
D13*
X177800000Y-165100000D03*
D18*
X172720000Y-165100000D03*
D19*
X173990000Y-162560000D03*
X180340000Y-160020000D03*
%TD*%
D18*
%TO.C,MX54*%
X230505000Y-146050000D03*
D13*
X225425000Y-146050000D03*
D18*
X220345000Y-146050000D03*
D19*
X221615000Y-143510000D03*
X227965000Y-140970000D03*
%TD*%
D18*
%TO.C,MX10*%
X249555000Y-88900000D03*
D13*
X244475000Y-88900000D03*
D18*
X239395000Y-88900000D03*
D19*
X240665000Y-86360000D03*
X247015000Y-83820000D03*
%TD*%
D18*
%TO.C,MX20*%
X163830000Y-107950000D03*
D13*
X158750000Y-107950000D03*
D18*
X153670000Y-107950000D03*
D19*
X154940000Y-105410000D03*
X161290000Y-102870000D03*
%TD*%
D18*
%TO.C,MX42*%
X282892500Y-127000000D03*
D13*
X277812500Y-127000000D03*
D18*
X272732500Y-127000000D03*
D19*
X274002500Y-124460000D03*
X280352500Y-121920000D03*
%TD*%
D18*
%TO.C,MX24*%
X220980000Y-107950000D03*
D13*
X215900000Y-107950000D03*
D18*
X210820000Y-107950000D03*
D19*
X212090000Y-105410000D03*
X218440000Y-102870000D03*
%TD*%
D18*
%TO.C,MX12*%
X287655000Y-88900000D03*
D13*
X282575000Y-88900000D03*
D18*
X277495000Y-88900000D03*
D19*
X278765000Y-86360000D03*
X285115000Y-83820000D03*
%TD*%
D20*
%TO.C,J1*%
X79110000Y-84800000D03*
X84890000Y-84800000D03*
D21*
X77680000Y-81150000D03*
D22*
X77680000Y-85330000D03*
D21*
X86320000Y-81150000D03*
D22*
X86320000Y-85330000D03*
%TD*%
D18*
%TO.C,MX46*%
X78105000Y-146050000D03*
D13*
X73025000Y-146050000D03*
D18*
X67945000Y-146050000D03*
D19*
X69215000Y-143510000D03*
X75565000Y-140970000D03*
%TD*%
D18*
%TO.C,MX15*%
X344805000Y-88900000D03*
D13*
X339725000Y-88900000D03*
D18*
X334645000Y-88900000D03*
D19*
X335915000Y-86360000D03*
X342265000Y-83820000D03*
%TD*%
D18*
%TO.C,MX50*%
X154305000Y-146050000D03*
D13*
X149225000Y-146050000D03*
D18*
X144145000Y-146050000D03*
D19*
X145415000Y-143510000D03*
X151765000Y-140970000D03*
%TD*%
D18*
%TO.C,MX1*%
X67945000Y-88900000D03*
D13*
X73025000Y-88900000D03*
D18*
X78105000Y-88900000D03*
D19*
X76835000Y-91440000D03*
X70485000Y-93980000D03*
%TD*%
D18*
%TO.C,MX71*%
X268605000Y-165100000D03*
D13*
X263525000Y-165100000D03*
D18*
X258445000Y-165100000D03*
D19*
X259715000Y-162560000D03*
X266065000Y-160020000D03*
%TD*%
D18*
%TO.C,MX29*%
X316230000Y-107950000D03*
D13*
X311150000Y-107950000D03*
D18*
X306070000Y-107950000D03*
D19*
X307340000Y-105410000D03*
X313690000Y-102870000D03*
%TD*%
D18*
%TO.C,MX57*%
X287655000Y-146050000D03*
D13*
X282575000Y-146050000D03*
D18*
X277495000Y-146050000D03*
D19*
X278765000Y-143510000D03*
X285115000Y-140970000D03*
%TD*%
D18*
%TO.C,MX18*%
X125730000Y-107950000D03*
D13*
X120650000Y-107950000D03*
D18*
X115570000Y-107950000D03*
D19*
X116840000Y-105410000D03*
X123190000Y-102870000D03*
%TD*%
D18*
%TO.C,MX31*%
X80486250Y-127000000D03*
D13*
X75406250Y-127000000D03*
D18*
X70326250Y-127000000D03*
D19*
X71596250Y-124460000D03*
X77946250Y-121920000D03*
%TD*%
D18*
%TO.C,MX44*%
X320992500Y-127000000D03*
D13*
X315912500Y-127000000D03*
D18*
X310832500Y-127000000D03*
D19*
X312102500Y-124460000D03*
X318452500Y-121920000D03*
%TD*%
D18*
%TO.C,MX21*%
X182880000Y-107950000D03*
D13*
X177800000Y-107950000D03*
D18*
X172720000Y-107950000D03*
D19*
X173990000Y-105410000D03*
X180340000Y-102870000D03*
%TD*%
D18*
%TO.C,MX59*%
X325755000Y-146050000D03*
D13*
X320675000Y-146050000D03*
D18*
X315595000Y-146050000D03*
D19*
X316865000Y-143510000D03*
X323215000Y-140970000D03*
%TD*%
D18*
%TO.C,MX43*%
X301942500Y-127000000D03*
D13*
X296862500Y-127000000D03*
D18*
X291782500Y-127000000D03*
D19*
X293052500Y-124460000D03*
X299402500Y-121920000D03*
%TD*%
D18*
%TO.C,MX75*%
X344805000Y-165100000D03*
D13*
X339725000Y-165100000D03*
D18*
X334645000Y-165100000D03*
D19*
X335915000Y-162560000D03*
X342265000Y-160020000D03*
%TD*%
D18*
%TO.C,MX36*%
X178117500Y-127000000D03*
D13*
X173037500Y-127000000D03*
D18*
X167957500Y-127000000D03*
D19*
X169227500Y-124460000D03*
X175577500Y-121920000D03*
%TD*%
D18*
%TO.C,MX11*%
X268605000Y-88900000D03*
D13*
X263525000Y-88900000D03*
D18*
X258445000Y-88900000D03*
D19*
X259715000Y-86360000D03*
X266065000Y-83820000D03*
%TD*%
D18*
%TO.C,MX61*%
X78105000Y-165100000D03*
D13*
X73025000Y-165100000D03*
D18*
X67945000Y-165100000D03*
D19*
X69215000Y-162560000D03*
X75565000Y-160020000D03*
%TD*%
D18*
%TO.C,MX27*%
X278130000Y-107950000D03*
D13*
X273050000Y-107950000D03*
D18*
X267970000Y-107950000D03*
D19*
X269240000Y-105410000D03*
X275590000Y-102870000D03*
%TD*%
D18*
%TO.C,MX47*%
X97155000Y-146050000D03*
D13*
X92075000Y-146050000D03*
D18*
X86995000Y-146050000D03*
D19*
X88265000Y-143510000D03*
X94615000Y-140970000D03*
%TD*%
D18*
%TO.C,MX3*%
X116205000Y-88900000D03*
D13*
X111125000Y-88900000D03*
D18*
X106045000Y-88900000D03*
D19*
X107315000Y-86360000D03*
X113665000Y-83820000D03*
%TD*%
D18*
%TO.C,MX33*%
X120967500Y-127000000D03*
D13*
X115887500Y-127000000D03*
D18*
X110807500Y-127000000D03*
D19*
X112077500Y-124460000D03*
X118427500Y-121920000D03*
%TD*%
D18*
%TO.C,MX49*%
X135255000Y-146050000D03*
D13*
X130175000Y-146050000D03*
D18*
X125095000Y-146050000D03*
D19*
X126365000Y-143510000D03*
X132715000Y-140970000D03*
%TD*%
D18*
%TO.C,MX39_2*%
X223361250Y-127000000D03*
D13*
X218281250Y-127000000D03*
D18*
X213201250Y-127000000D03*
D19*
X214471250Y-124460000D03*
X220821250Y-121920000D03*
%TD*%
D18*
%TO.C,MX64*%
X135255000Y-165100000D03*
D13*
X130175000Y-165100000D03*
D18*
X125095000Y-165100000D03*
D19*
X126365000Y-162560000D03*
X132715000Y-160020000D03*
%TD*%
D18*
%TO.C,MX60*%
X344805000Y-146050000D03*
D13*
X339725000Y-146050000D03*
D18*
X334645000Y-146050000D03*
D19*
X335915000Y-143510000D03*
X342265000Y-140970000D03*
%TD*%
D18*
%TO.C,MX13*%
X306705000Y-88900000D03*
D13*
X301625000Y-88900000D03*
D18*
X296545000Y-88900000D03*
D19*
X297815000Y-86360000D03*
X304165000Y-83820000D03*
%TD*%
D18*
%TO.C,MX9*%
X230505000Y-88900000D03*
D13*
X225425000Y-88900000D03*
D18*
X220345000Y-88900000D03*
D19*
X221615000Y-86360000D03*
X227965000Y-83820000D03*
%TD*%
D18*
%TO.C,MX34*%
X140017500Y-127000000D03*
D13*
X134937500Y-127000000D03*
D18*
X129857500Y-127000000D03*
D19*
X131127500Y-124460000D03*
X137477500Y-121920000D03*
%TD*%
D18*
%TO.C,MX63*%
X116205000Y-165100000D03*
D13*
X111125000Y-165100000D03*
D18*
X106045000Y-165100000D03*
D19*
X107315000Y-162560000D03*
X113665000Y-160020000D03*
%TD*%
D18*
%TO.C,MX53*%
X211455000Y-146050000D03*
D13*
X206375000Y-146050000D03*
D18*
X201295000Y-146050000D03*
D19*
X202565000Y-143510000D03*
X208915000Y-140970000D03*
%TD*%
D18*
%TO.C,MX37_2*%
X189388750Y-127000000D03*
D13*
X194468750Y-127000000D03*
D18*
X199548750Y-127000000D03*
D19*
X198278750Y-129540000D03*
X191928750Y-132080000D03*
%TD*%
D18*
%TO.C,MX74*%
X325755000Y-165100000D03*
D13*
X320675000Y-165100000D03*
D18*
X315595000Y-165100000D03*
D19*
X316865000Y-162560000D03*
X323215000Y-160020000D03*
%TD*%
D18*
%TO.C,MX4*%
X135255000Y-88900000D03*
D13*
X130175000Y-88900000D03*
D18*
X125095000Y-88900000D03*
D19*
X126365000Y-86360000D03*
X132715000Y-83820000D03*
%TD*%
D18*
%TO.C,MX52*%
X192405000Y-146050000D03*
D13*
X187325000Y-146050000D03*
D18*
X182245000Y-146050000D03*
D19*
X183515000Y-143510000D03*
X189865000Y-140970000D03*
%TD*%
D18*
%TO.C,MX55*%
X249555000Y-146050000D03*
D13*
X244475000Y-146050000D03*
D18*
X239395000Y-146050000D03*
D19*
X240665000Y-143510000D03*
X247015000Y-140970000D03*
%TD*%
D18*
%TO.C,MX25*%
X240030000Y-107950000D03*
D13*
X234950000Y-107950000D03*
D18*
X229870000Y-107950000D03*
D19*
X231140000Y-105410000D03*
X237490000Y-102870000D03*
%TD*%
D18*
%TO.C,MX72*%
X287655000Y-165100000D03*
D13*
X282575000Y-165100000D03*
D18*
X277495000Y-165100000D03*
D19*
X278765000Y-162560000D03*
X285115000Y-160020000D03*
%TD*%
D18*
%TO.C,MX30*%
X340042500Y-107950000D03*
D13*
X334962500Y-107950000D03*
D18*
X329882500Y-107950000D03*
D19*
X331152500Y-105410000D03*
X337502500Y-102870000D03*
%TD*%
D18*
%TO.C,MX58*%
X306705000Y-146050000D03*
D13*
X301625000Y-146050000D03*
D18*
X296545000Y-146050000D03*
D19*
X297815000Y-143510000D03*
X304165000Y-140970000D03*
%TD*%
D18*
%TO.C,MX17*%
X106680000Y-107950000D03*
D13*
X101600000Y-107950000D03*
D18*
X96520000Y-107950000D03*
D19*
X97790000Y-105410000D03*
X104140000Y-102870000D03*
%TD*%
D18*
%TO.C,MX28*%
X297180000Y-107950000D03*
D13*
X292100000Y-107950000D03*
D18*
X287020000Y-107950000D03*
D19*
X288290000Y-105410000D03*
X294640000Y-102870000D03*
%TD*%
D18*
%TO.C,MX37*%
X197167500Y-127000000D03*
D13*
X192087500Y-127000000D03*
D18*
X187007500Y-127000000D03*
D19*
X188277500Y-124460000D03*
X194627500Y-121920000D03*
%TD*%
D18*
%TO.C,MX62*%
X97155000Y-165100000D03*
D13*
X92075000Y-165100000D03*
D18*
X86995000Y-165100000D03*
D19*
X88265000Y-162560000D03*
X94615000Y-160020000D03*
%TD*%
D18*
%TO.C,MX6*%
X173355000Y-88900000D03*
D13*
X168275000Y-88900000D03*
D18*
X163195000Y-88900000D03*
D19*
X164465000Y-86360000D03*
X170815000Y-83820000D03*
%TD*%
%LPD*%
M02*
