%TF.GenerationSoftware,KiCad,Pcbnew,9.0.8*%
%TF.CreationDate,2026-03-16T19:55:15+01:00*%
%TF.ProjectId,keyboard-template-60,6b657962-6f61-4726-942d-74656d706c61,rev?*%
%TF.SameCoordinates,Original*%
%TF.FileFunction,Soldermask,Top*%
%TF.FilePolarity,Negative*%
%FSLAX46Y46*%
G04 Gerber Fmt 4.6, Leading zero omitted, Abs format (unit mm)*
G04 Created by KiCad (PCBNEW 9.0.8) date 2026-03-16 19:55:15*
%MOMM*%
%LPD*%
G01*
G04 APERTURE LIST*
%ADD10R,1.000000X1.000000*%
%ADD11C,3.000000*%
%ADD12C,3.300000*%
%ADD13O,1.000000X1.600000*%
%ADD14O,1.000000X2.100000*%
%ADD15R,1.700000X1.700000*%
%ADD16O,1.700000X1.700000*%
G04 APERTURE END LIST*
D10*
%TO.C,U3*%
X208280000Y-115550000D03*
X207010000Y-115550000D03*
X205740000Y-115550000D03*
X204460000Y-115550000D03*
D11*
X215875000Y-127000000D03*
X196875000Y-127000000D03*
%TD*%
D12*
%TO.C,MX56*%
X259715000Y-143510000D03*
X266065000Y-140970000D03*
%TD*%
%TO.C,MX73*%
X297815000Y-162560000D03*
X304165000Y-160020000D03*
%TD*%
%TO.C,MX19*%
X135890000Y-105410000D03*
X142240000Y-102870000D03*
%TD*%
%TO.C,MX45*%
X333533750Y-124460000D03*
X339883750Y-121920000D03*
%TD*%
%TO.C,MX5*%
X145415000Y-86360000D03*
X151765000Y-83820000D03*
%TD*%
%TO.C,MX16*%
X73977500Y-105410000D03*
X80327500Y-102870000D03*
%TD*%
%TO.C,MX51*%
X164465000Y-143510000D03*
X170815000Y-140970000D03*
%TD*%
%TO.C,MX40*%
X235902500Y-124460000D03*
X242252500Y-121920000D03*
%TD*%
%TO.C,MX8*%
X202565000Y-86360000D03*
X208915000Y-83820000D03*
%TD*%
%TO.C,MX7*%
X183515000Y-86360000D03*
X189865000Y-83820000D03*
%TD*%
%TO.C,MX26*%
X250190000Y-105410000D03*
X256540000Y-102870000D03*
%TD*%
%TO.C,MX41*%
X254952500Y-124460000D03*
X261302500Y-121920000D03*
%TD*%
%TO.C,MX48*%
X107315000Y-143510000D03*
X113665000Y-140970000D03*
%TD*%
%TO.C,MX65*%
X145415000Y-162560000D03*
X151765000Y-160020000D03*
%TD*%
%TO.C,MX69*%
X231125200Y-162549600D03*
X237475200Y-160009600D03*
%TD*%
%TO.C,MX35*%
X150177500Y-124460000D03*
X156527500Y-121920000D03*
%TD*%
%TO.C,MX32*%
X93027500Y-124460000D03*
X99377500Y-121920000D03*
%TD*%
%TO.C,MX2*%
X95885000Y-91440000D03*
X89535000Y-93980000D03*
%TD*%
%TO.C,MX14*%
X316865000Y-86360000D03*
X323215000Y-83820000D03*
%TD*%
%TO.C,MX67*%
X173990000Y-162560000D03*
X180340000Y-160020000D03*
%TD*%
%TO.C,MX54*%
X221600800Y-143500800D03*
X227950800Y-140960800D03*
%TD*%
%TO.C,MX10*%
X240665000Y-86360000D03*
X247015000Y-83820000D03*
%TD*%
%TO.C,MX20*%
X154940000Y-105410000D03*
X161290000Y-102870000D03*
%TD*%
%TO.C,MX42*%
X274002500Y-124460000D03*
X280352500Y-121920000D03*
%TD*%
%TO.C,MX24*%
X208915000Y-104140000D03*
X211455000Y-110490000D03*
%TD*%
%TO.C,MX12*%
X278765000Y-86360000D03*
X285115000Y-83820000D03*
%TD*%
D13*
%TO.C,J1*%
X77680000Y-81150000D03*
D14*
X77680000Y-85330000D03*
D13*
X86320000Y-81150000D03*
D14*
X86320000Y-85330000D03*
%TD*%
D12*
%TO.C,MX46*%
X69215000Y-143510000D03*
X75565000Y-140970000D03*
%TD*%
%TO.C,MX15*%
X335915000Y-86360000D03*
X342265000Y-83820000D03*
%TD*%
%TO.C,MX50*%
X145415000Y-143510000D03*
X151765000Y-140970000D03*
%TD*%
D15*
%TO.C,J3*%
X113008150Y-117611500D03*
D16*
X115548150Y-117611500D03*
X113008150Y-115071500D03*
X115548150Y-115071500D03*
X113008150Y-112531500D03*
X115548150Y-112531500D03*
%TD*%
D12*
%TO.C,MX1*%
X76835000Y-91440000D03*
X70485000Y-93980000D03*
%TD*%
%TO.C,MX71*%
X259715000Y-162560000D03*
X266065000Y-160020000D03*
%TD*%
%TO.C,MX29*%
X307340000Y-105410000D03*
X313690000Y-102870000D03*
%TD*%
%TO.C,MX57*%
X278765000Y-143510000D03*
X285115000Y-140970000D03*
%TD*%
%TO.C,MX18*%
X116840000Y-105410000D03*
X123190000Y-102870000D03*
%TD*%
%TO.C,MX31*%
X71596250Y-124460000D03*
X77946250Y-121920000D03*
%TD*%
%TO.C,MX44*%
X312102500Y-124460000D03*
X318452500Y-121920000D03*
%TD*%
%TO.C,MX21*%
X175260000Y-111760000D03*
X172720000Y-105410000D03*
%TD*%
%TO.C,MX59*%
X316865000Y-143510000D03*
X323215000Y-140970000D03*
%TD*%
%TO.C,MX43*%
X293052500Y-124460000D03*
X299402500Y-121920000D03*
%TD*%
%TO.C,MX75*%
X335915000Y-162560000D03*
X342265000Y-160020000D03*
%TD*%
%TO.C,MX37*%
X189547500Y-130810000D03*
X187007500Y-124460000D03*
%TD*%
%TO.C,MX36*%
X169227500Y-124460000D03*
X175577500Y-121920000D03*
%TD*%
%TO.C,MX11*%
X259715000Y-86360000D03*
X266065000Y-83820000D03*
%TD*%
%TO.C,MX61*%
X69215000Y-162560000D03*
X75565000Y-160020000D03*
%TD*%
%TO.C,MX27*%
X269240000Y-105410000D03*
X275590000Y-102870000D03*
%TD*%
%TO.C,MX47*%
X88265000Y-143510000D03*
X94615000Y-140970000D03*
%TD*%
%TO.C,MX3*%
X107315000Y-86360000D03*
X113665000Y-83820000D03*
%TD*%
%TO.C,MX33*%
X112077500Y-124460000D03*
X118427500Y-121920000D03*
%TD*%
%TO.C,MX49*%
X126365000Y-143510000D03*
X132715000Y-140970000D03*
%TD*%
%TO.C,MX64*%
X126365000Y-162560000D03*
X132715000Y-160020000D03*
%TD*%
%TO.C,MX60*%
X335915000Y-143510000D03*
X342265000Y-140970000D03*
%TD*%
%TO.C,MX39*%
X223202500Y-123190000D03*
X225742500Y-129540000D03*
%TD*%
%TO.C,MX13*%
X297815000Y-86360000D03*
X304165000Y-83820000D03*
%TD*%
%TO.C,MX9*%
X221615000Y-86360000D03*
X227965000Y-83820000D03*
%TD*%
%TO.C,MX34*%
X131127500Y-124460000D03*
X137477500Y-121920000D03*
%TD*%
%TO.C,MX63*%
X107315000Y-162560000D03*
X113665000Y-160020000D03*
%TD*%
%TO.C,MX53*%
X202552000Y-143499600D03*
X208902000Y-140959600D03*
%TD*%
%TO.C,MX74*%
X316865000Y-162560000D03*
X323215000Y-160020000D03*
%TD*%
%TO.C,MX4*%
X126365000Y-86360000D03*
X132715000Y-83820000D03*
%TD*%
%TO.C,MX52*%
X183515000Y-143510000D03*
X189865000Y-140970000D03*
%TD*%
%TO.C,MX55*%
X240665000Y-143510000D03*
X247015000Y-140970000D03*
%TD*%
%TO.C,MX25*%
X231140000Y-105410000D03*
X237490000Y-102870000D03*
%TD*%
%TO.C,MX72*%
X278765000Y-162560000D03*
X285115000Y-160020000D03*
%TD*%
%TO.C,MX30*%
X331152500Y-105410000D03*
X337502500Y-102870000D03*
%TD*%
%TO.C,MX58*%
X297815000Y-143510000D03*
X304165000Y-140970000D03*
%TD*%
%TO.C,MX68*%
X202552000Y-162549600D03*
X208902000Y-160009600D03*
%TD*%
%TO.C,MX17*%
X97790000Y-105410000D03*
X104140000Y-102870000D03*
%TD*%
%TO.C,MX28*%
X288290000Y-105410000D03*
X294640000Y-102870000D03*
%TD*%
%TO.C,MX62*%
X88265000Y-162560000D03*
X94615000Y-160020000D03*
%TD*%
%TO.C,MX6*%
X164465000Y-86360000D03*
X170815000Y-83820000D03*
%TD*%
M02*
