%TF.GenerationSoftware,KiCad,Pcbnew,7.0.10*%
%TF.CreationDate,2024-02-04T16:22:33+01:00*%
%TF.ProjectId,keyboard-template-60,6b657962-6f61-4726-942d-74656d706c61,rev?*%
%TF.SameCoordinates,Original*%
%TF.FileFunction,Soldermask,Bot*%
%TF.FilePolarity,Negative*%
%FSLAX46Y46*%
G04 Gerber Fmt 4.6, Leading zero omitted, Abs format (unit mm)*
G04 Created by KiCad (PCBNEW 7.0.10) date 2024-02-04 16:22:33*
%MOMM*%
%LPD*%
G01*
G04 APERTURE LIST*
G04 Aperture macros list*
%AMRoundRect*
0 Rectangle with rounded corners*
0 $1 Rounding radius*
0 $2 $3 $4 $5 $6 $7 $8 $9 X,Y pos of 4 corners*
0 Add a 4 corners polygon primitive as box body*
4,1,4,$2,$3,$4,$5,$6,$7,$8,$9,$2,$3,0*
0 Add four circle primitives for the rounded corners*
1,1,$1+$1,$2,$3*
1,1,$1+$1,$4,$5*
1,1,$1+$1,$6,$7*
1,1,$1+$1,$8,$9*
0 Add four rect primitives between the rounded corners*
20,1,$1+$1,$2,$3,$4,$5,0*
20,1,$1+$1,$4,$5,$6,$7,0*
20,1,$1+$1,$6,$7,$8,$9,0*
20,1,$1+$1,$8,$9,$2,$3,0*%
G04 Aperture macros list end*
%ADD10C,3.048000*%
%ADD11C,3.987800*%
%ADD12C,2.600000*%
%ADD13R,1.700000X1.700000*%
%ADD14O,1.700000X1.700000*%
%ADD15C,1.750000*%
%ADD16C,3.300000*%
%ADD17RoundRect,0.250000X1.025000X1.000000X-1.025000X1.000000X-1.025000X-1.000000X1.025000X-1.000000X0*%
%ADD18R,1.200000X0.900000*%
%ADD19RoundRect,0.250000X-1.025000X-1.000000X1.025000X-1.000000X1.025000X1.000000X-1.025000X1.000000X0*%
%ADD20RoundRect,0.237500X-0.237500X0.300000X-0.237500X-0.300000X0.237500X-0.300000X0.237500X0.300000X0*%
%ADD21RoundRect,0.237500X0.300000X0.237500X-0.300000X0.237500X-0.300000X-0.237500X0.300000X-0.237500X0*%
%ADD22RoundRect,0.237500X0.237500X-0.300000X0.237500X0.300000X-0.237500X0.300000X-0.237500X-0.300000X0*%
%ADD23R,1.800000X1.100000*%
%ADD24RoundRect,0.150000X0.487500X0.150000X-0.487500X0.150000X-0.487500X-0.150000X0.487500X-0.150000X0*%
%ADD25RoundRect,0.237500X-0.300000X-0.237500X0.300000X-0.237500X0.300000X0.237500X-0.300000X0.237500X0*%
%ADD26C,0.650000*%
%ADD27R,0.600000X1.450000*%
%ADD28R,0.300000X1.450000*%
%ADD29O,1.000000X1.600000*%
%ADD30O,1.000000X2.100000*%
%ADD31R,1.400000X1.200000*%
%ADD32RoundRect,0.062500X-0.062500X0.375000X-0.062500X-0.375000X0.062500X-0.375000X0.062500X0.375000X0*%
%ADD33RoundRect,0.062500X-0.375000X0.062500X-0.375000X-0.062500X0.375000X-0.062500X0.375000X0.062500X0*%
%ADD34R,5.150000X5.150000*%
%ADD35RoundRect,0.150000X-0.275000X0.150000X-0.275000X-0.150000X0.275000X-0.150000X0.275000X0.150000X0*%
%ADD36RoundRect,0.187500X-0.362500X0.187500X-0.362500X-0.187500X0.362500X-0.187500X0.362500X0.187500X0*%
%ADD37RoundRect,0.250001X-0.624999X0.462499X-0.624999X-0.462499X0.624999X-0.462499X0.624999X0.462499X0*%
G04 APERTURE END LIST*
D10*
%TO.C,S2*%
X246856250Y-172085000D03*
D11*
X246856250Y-156845000D03*
D10*
X223043750Y-172085000D03*
D11*
X223043750Y-156845000D03*
%TD*%
D12*
%TO.C,H6*%
X292100000Y-155575000D03*
%TD*%
%TO.C,H1*%
X120650000Y-98425000D03*
%TD*%
%TO.C,H4*%
X120650000Y-155575000D03*
%TD*%
D10*
%TO.C,S3*%
X263525000Y-172085000D03*
D11*
X263525000Y-156845000D03*
D10*
X149225000Y-172085000D03*
D11*
X149225000Y-156845000D03*
%TD*%
D13*
%TO.C,J3*%
X99853750Y-112553750D03*
D14*
X102393750Y-112553750D03*
X99853750Y-115093750D03*
X102393750Y-115093750D03*
X99853750Y-117633750D03*
X102393750Y-117633750D03*
%TD*%
D10*
%TO.C,S1*%
X189706250Y-172085000D03*
D11*
X189706250Y-156845000D03*
D10*
X165893750Y-172085000D03*
D11*
X165893750Y-156845000D03*
%TD*%
D12*
%TO.C,H3*%
X292100000Y-98425000D03*
%TD*%
%TO.C,H5*%
X206375000Y-155575000D03*
%TD*%
%TO.C,H2*%
X206375000Y-98425000D03*
%TD*%
D15*
%TO.C,MX56*%
X268605000Y-146050000D03*
D11*
X263525000Y-146050000D03*
D15*
X258445000Y-146050000D03*
D16*
X259715000Y-143510000D03*
D17*
X256165000Y-143510000D03*
X269615000Y-140970000D03*
D16*
X266065000Y-140970000D03*
%TD*%
D18*
%TO.C,D47*%
X100012500Y-147700000D03*
X100012500Y-144400000D03*
%TD*%
D15*
%TO.C,MX73*%
X306705000Y-165100000D03*
D11*
X301625000Y-165100000D03*
D15*
X296545000Y-165100000D03*
D16*
X297815000Y-162560000D03*
D17*
X294265000Y-162560000D03*
X307715000Y-160020000D03*
D16*
X304165000Y-160020000D03*
%TD*%
D15*
%TO.C,MX39*%
X215582500Y-127000000D03*
D11*
X220662500Y-127000000D03*
D15*
X225742500Y-127000000D03*
D16*
X224472500Y-129540000D03*
D19*
X228022500Y-129540000D03*
X214572500Y-132080000D03*
D16*
X218122500Y-132080000D03*
%TD*%
D18*
%TO.C,D52*%
X195262500Y-147700000D03*
X195262500Y-144400000D03*
%TD*%
%TO.C,D55*%
X252412500Y-147700000D03*
X252412500Y-144400000D03*
%TD*%
D15*
%TO.C,MX19*%
X144780000Y-107950000D03*
D11*
X139700000Y-107950000D03*
D15*
X134620000Y-107950000D03*
D16*
X135890000Y-105410000D03*
D17*
X132340000Y-105410000D03*
X145790000Y-102870000D03*
D16*
X142240000Y-102870000D03*
%TD*%
D15*
%TO.C,MX45*%
X342423750Y-127000000D03*
D11*
X337343750Y-127000000D03*
D15*
X332263750Y-127000000D03*
D16*
X333533750Y-124460000D03*
D17*
X329983750Y-124460000D03*
X343433750Y-121920000D03*
D16*
X339883750Y-121920000D03*
%TD*%
D15*
%TO.C,MX5*%
X154305000Y-88900000D03*
D11*
X149225000Y-88900000D03*
D15*
X144145000Y-88900000D03*
D16*
X145415000Y-86360000D03*
D17*
X141865000Y-86360000D03*
X155315000Y-83820000D03*
D16*
X151765000Y-83820000D03*
%TD*%
D18*
%TO.C,D15*%
X342900000Y-96106250D03*
X342900000Y-92806250D03*
%TD*%
%TO.C,D39*%
X207962500Y-128650000D03*
X207962500Y-125350000D03*
%TD*%
D20*
%TO.C,R6*%
X85300000Y-113487500D03*
X85300000Y-115212500D03*
%TD*%
D15*
%TO.C,MX16*%
X82867500Y-107950000D03*
D11*
X77787500Y-107950000D03*
D15*
X72707500Y-107950000D03*
D16*
X73977500Y-105410000D03*
D17*
X70427500Y-105410000D03*
X83877500Y-102870000D03*
D16*
X80327500Y-102870000D03*
%TD*%
D18*
%TO.C,D6*%
X176212500Y-90550000D03*
X176212500Y-87250000D03*
%TD*%
D15*
%TO.C,MX51*%
X173355000Y-146050000D03*
D11*
X168275000Y-146050000D03*
D15*
X163195000Y-146050000D03*
D16*
X164465000Y-143510000D03*
D17*
X160915000Y-143510000D03*
X174365000Y-140970000D03*
D16*
X170815000Y-140970000D03*
%TD*%
D18*
%TO.C,D27*%
X280987500Y-109600000D03*
X280987500Y-106300000D03*
%TD*%
D21*
%TO.C,C7*%
X79362500Y-130000000D03*
X77637500Y-130000000D03*
%TD*%
D15*
%TO.C,MX40*%
X244792500Y-127000000D03*
D11*
X239712500Y-127000000D03*
D15*
X234632500Y-127000000D03*
D16*
X235902500Y-124460000D03*
D17*
X232352500Y-124460000D03*
X245802500Y-121920000D03*
D16*
X242252500Y-121920000D03*
%TD*%
D18*
%TO.C,D18*%
X128587500Y-109600000D03*
X128587500Y-106300000D03*
%TD*%
%TO.C,D57*%
X290512500Y-147700000D03*
X290512500Y-144400000D03*
%TD*%
D21*
%TO.C,R1*%
X98712500Y-130950000D03*
X96987500Y-130950000D03*
%TD*%
D15*
%TO.C,MX8*%
X211455000Y-88900000D03*
D11*
X206375000Y-88900000D03*
D15*
X201295000Y-88900000D03*
D16*
X202565000Y-86360000D03*
D17*
X199015000Y-86360000D03*
X212465000Y-83820000D03*
D16*
X208915000Y-83820000D03*
%TD*%
D15*
%TO.C,MX7*%
X192405000Y-88900000D03*
D11*
X187325000Y-88900000D03*
D15*
X182245000Y-88900000D03*
D16*
X183515000Y-86360000D03*
D17*
X179965000Y-86360000D03*
X193415000Y-83820000D03*
D16*
X189865000Y-83820000D03*
%TD*%
D22*
%TO.C,C2*%
X93050000Y-134312500D03*
X93050000Y-132587500D03*
%TD*%
D18*
%TO.C,D59*%
X328612500Y-147700000D03*
X328612500Y-144400000D03*
%TD*%
D15*
%TO.C,MX26*%
X259080000Y-107950000D03*
D11*
X254000000Y-107950000D03*
D15*
X248920000Y-107950000D03*
D16*
X250190000Y-105410000D03*
D17*
X246640000Y-105410000D03*
X260090000Y-102870000D03*
D16*
X256540000Y-102870000D03*
%TD*%
D15*
%TO.C,MX68*%
X211455000Y-165100000D03*
D11*
X206375000Y-165100000D03*
D15*
X201295000Y-165100000D03*
D16*
X202565000Y-162560000D03*
D17*
X199015000Y-162560000D03*
X212465000Y-160020000D03*
D16*
X208915000Y-160020000D03*
%TD*%
D15*
%TO.C,MX41*%
X263842500Y-127000000D03*
D11*
X258762500Y-127000000D03*
D15*
X253682500Y-127000000D03*
D16*
X254952500Y-124460000D03*
D17*
X251402500Y-124460000D03*
X264852500Y-121920000D03*
D16*
X261302500Y-121920000D03*
%TD*%
D15*
%TO.C,MX48*%
X116205000Y-146050000D03*
D11*
X111125000Y-146050000D03*
D15*
X106045000Y-146050000D03*
D16*
X107315000Y-143510000D03*
D17*
X103765000Y-143510000D03*
X117215000Y-140970000D03*
D16*
X113665000Y-140970000D03*
%TD*%
D20*
%TO.C,C6*%
X91350000Y-129687500D03*
X91350000Y-131412500D03*
%TD*%
D18*
%TO.C,D35*%
X161925000Y-128650000D03*
X161925000Y-125350000D03*
%TD*%
%TO.C,D37*%
X204787500Y-128650000D03*
X204787500Y-125350000D03*
%TD*%
D15*
%TO.C,MX65*%
X154305000Y-165100000D03*
D11*
X149225000Y-165100000D03*
D15*
X144145000Y-165100000D03*
D16*
X145415000Y-162560000D03*
D17*
X141865000Y-162560000D03*
X155315000Y-160020000D03*
D16*
X151765000Y-160020000D03*
%TD*%
D15*
%TO.C,MX22*%
X201930000Y-107950000D03*
D11*
X196850000Y-107950000D03*
D15*
X191770000Y-107950000D03*
D16*
X193040000Y-105410000D03*
D17*
X189490000Y-105410000D03*
X202940000Y-102870000D03*
D16*
X199390000Y-102870000D03*
%TD*%
D18*
%TO.C,D25*%
X242887500Y-109600000D03*
X242887500Y-106300000D03*
%TD*%
%TO.C,D30*%
X342900000Y-109600000D03*
X342900000Y-106300000D03*
%TD*%
%TO.C,D29*%
X319087500Y-109600000D03*
X319087500Y-106300000D03*
%TD*%
D15*
%TO.C,MX69*%
X240030000Y-165100000D03*
D11*
X234950000Y-165100000D03*
D15*
X229870000Y-165100000D03*
D16*
X231140000Y-162560000D03*
D17*
X227590000Y-162560000D03*
X241040000Y-160020000D03*
D16*
X237490000Y-160020000D03*
%TD*%
D15*
%TO.C,MX35*%
X159067500Y-127000000D03*
D11*
X153987500Y-127000000D03*
D15*
X148907500Y-127000000D03*
D16*
X150177500Y-124460000D03*
D17*
X146627500Y-124460000D03*
X160077500Y-121920000D03*
D16*
X156527500Y-121920000D03*
%TD*%
D15*
%TO.C,MX32*%
X101917500Y-127000000D03*
D11*
X96837500Y-127000000D03*
D15*
X91757500Y-127000000D03*
D16*
X93027500Y-124460000D03*
D17*
X89477500Y-124460000D03*
X102927500Y-121920000D03*
D16*
X99377500Y-121920000D03*
%TD*%
D15*
%TO.C,MX2*%
X86995000Y-88900000D03*
D11*
X92075000Y-88900000D03*
D15*
X97155000Y-88900000D03*
D16*
X95885000Y-91440000D03*
D19*
X99435000Y-91440000D03*
X85985000Y-93980000D03*
D16*
X89535000Y-93980000D03*
%TD*%
D15*
%TO.C,MX14*%
X325755000Y-88900000D03*
D11*
X320675000Y-88900000D03*
D15*
X315595000Y-88900000D03*
D16*
X316865000Y-86360000D03*
D17*
X313315000Y-86360000D03*
X326765000Y-83820000D03*
D16*
X323215000Y-83820000D03*
%TD*%
D15*
%TO.C,MX67*%
X182880000Y-165100000D03*
D11*
X177800000Y-165100000D03*
D15*
X172720000Y-165100000D03*
D16*
X173990000Y-162560000D03*
D17*
X170440000Y-162560000D03*
X183890000Y-160020000D03*
D16*
X180340000Y-160020000D03*
%TD*%
D18*
%TO.C,D62*%
X100012500Y-166750000D03*
X100012500Y-163450000D03*
%TD*%
%TO.C,D75*%
X342900000Y-170718750D03*
X342900000Y-167418750D03*
%TD*%
D15*
%TO.C,MX54*%
X230505000Y-146050000D03*
D11*
X225425000Y-146050000D03*
D15*
X220345000Y-146050000D03*
D16*
X221615000Y-143510000D03*
D17*
X218065000Y-143510000D03*
X231515000Y-140970000D03*
D16*
X227965000Y-140970000D03*
%TD*%
D23*
%TO.C,SW1*%
X100881250Y-135200000D03*
X107081250Y-135200000D03*
X100881250Y-131500000D03*
X107081250Y-131500000D03*
%TD*%
D15*
%TO.C,MX10*%
X249555000Y-88900000D03*
D11*
X244475000Y-88900000D03*
D15*
X239395000Y-88900000D03*
D16*
X240665000Y-86360000D03*
D17*
X237115000Y-86360000D03*
X250565000Y-83820000D03*
D16*
X247015000Y-83820000D03*
%TD*%
D15*
%TO.C,MX20*%
X163830000Y-107950000D03*
D11*
X158750000Y-107950000D03*
D15*
X153670000Y-107950000D03*
D16*
X154940000Y-105410000D03*
D17*
X151390000Y-105410000D03*
X164840000Y-102870000D03*
D16*
X161290000Y-102870000D03*
%TD*%
D21*
%TO.C,C8*%
X83212500Y-124950000D03*
X81487500Y-124950000D03*
%TD*%
D15*
%TO.C,MX42*%
X282892500Y-127000000D03*
D11*
X277812500Y-127000000D03*
D15*
X272732500Y-127000000D03*
D16*
X274002500Y-124460000D03*
D17*
X270452500Y-124460000D03*
X283902500Y-121920000D03*
D16*
X280352500Y-121920000D03*
%TD*%
D18*
%TO.C,D13*%
X309562500Y-90550000D03*
X309562500Y-87250000D03*
%TD*%
D15*
%TO.C,MX24*%
X220980000Y-107950000D03*
D11*
X215900000Y-107950000D03*
D15*
X210820000Y-107950000D03*
D16*
X212090000Y-105410000D03*
D17*
X208540000Y-105410000D03*
X221990000Y-102870000D03*
D16*
X218440000Y-102870000D03*
%TD*%
D18*
%TO.C,D73*%
X309562500Y-166750000D03*
X309562500Y-163450000D03*
%TD*%
%TO.C,D58*%
X309562500Y-147700000D03*
X309562500Y-144400000D03*
%TD*%
%TO.C,D46*%
X86518750Y-152462500D03*
X86518750Y-149162500D03*
%TD*%
%TO.C,D42*%
X285750000Y-128650000D03*
X285750000Y-125350000D03*
%TD*%
D24*
%TO.C,U2*%
X85275000Y-97475000D03*
X85275000Y-98425000D03*
X85275000Y-99375000D03*
X83000000Y-99375000D03*
X83000000Y-98425000D03*
X83000000Y-97475000D03*
%TD*%
D18*
%TO.C,D10*%
X252412500Y-90550000D03*
X252412500Y-87250000D03*
%TD*%
%TO.C,D40*%
X247650000Y-128650000D03*
X247650000Y-125350000D03*
%TD*%
D15*
%TO.C,MX12*%
X287655000Y-88900000D03*
D11*
X282575000Y-88900000D03*
D15*
X277495000Y-88900000D03*
D16*
X278765000Y-86360000D03*
D17*
X275215000Y-86360000D03*
X288665000Y-83820000D03*
D16*
X285115000Y-83820000D03*
%TD*%
D25*
%TO.C,C4*%
X90337500Y-138350000D03*
X92062500Y-138350000D03*
%TD*%
D18*
%TO.C,D68*%
X214312500Y-166750000D03*
X214312500Y-163450000D03*
%TD*%
D25*
%TO.C,R2*%
X77637500Y-138000000D03*
X79362500Y-138000000D03*
%TD*%
D18*
%TO.C,D63*%
X119062500Y-166750000D03*
X119062500Y-163450000D03*
%TD*%
%TO.C,D17*%
X109537500Y-109600000D03*
X109537500Y-106300000D03*
%TD*%
D26*
%TO.C,J1*%
X79110000Y-84800000D03*
X84890000Y-84800000D03*
D27*
X78750000Y-86245000D03*
X79550000Y-86245000D03*
D28*
X80750000Y-86245000D03*
X81750000Y-86245000D03*
X82250000Y-86245000D03*
X83250000Y-86245000D03*
D27*
X84450000Y-86245000D03*
X85250000Y-86245000D03*
X85250000Y-86245000D03*
X84450000Y-86245000D03*
D28*
X83750000Y-86245000D03*
X82750000Y-86245000D03*
X81250000Y-86245000D03*
X80250000Y-86245000D03*
D27*
X79550000Y-86245000D03*
X78750000Y-86245000D03*
D29*
X77680000Y-81150000D03*
D30*
X77680000Y-85330000D03*
D29*
X86320000Y-81150000D03*
D30*
X86320000Y-85330000D03*
%TD*%
D15*
%TO.C,MX46*%
X78105000Y-146050000D03*
D11*
X73025000Y-146050000D03*
D15*
X67945000Y-146050000D03*
D16*
X69215000Y-143510000D03*
D17*
X65665000Y-143510000D03*
X79115000Y-140970000D03*
D16*
X75565000Y-140970000D03*
%TD*%
D15*
%TO.C,MX15*%
X344805000Y-88900000D03*
D11*
X339725000Y-88900000D03*
D15*
X334645000Y-88900000D03*
D16*
X335915000Y-86360000D03*
D17*
X332365000Y-86360000D03*
X345815000Y-83820000D03*
D16*
X342265000Y-83820000D03*
%TD*%
D15*
%TO.C,MX50*%
X154305000Y-146050000D03*
D11*
X149225000Y-146050000D03*
D15*
X144145000Y-146050000D03*
D16*
X145415000Y-143510000D03*
D17*
X141865000Y-143510000D03*
X155315000Y-140970000D03*
D16*
X151765000Y-140970000D03*
%TD*%
D18*
%TO.C,D4*%
X138112500Y-90550000D03*
X138112500Y-87250000D03*
%TD*%
%TO.C,D61*%
X80962500Y-166750000D03*
X80962500Y-163450000D03*
%TD*%
%TO.C,D67*%
X185737500Y-166750000D03*
X185737500Y-163450000D03*
%TD*%
%TO.C,D72*%
X290512500Y-166750000D03*
X290512500Y-163450000D03*
%TD*%
%TO.C,D44*%
X323850000Y-128650000D03*
X323850000Y-125350000D03*
%TD*%
D31*
%TO.C,Y1*%
X97050000Y-134300000D03*
X94850000Y-134300000D03*
X94850000Y-132600000D03*
X97050000Y-132600000D03*
%TD*%
D18*
%TO.C,D53*%
X214312500Y-147700000D03*
X214312500Y-144400000D03*
%TD*%
%TO.C,D50*%
X157162500Y-147700000D03*
X157162500Y-144400000D03*
%TD*%
%TO.C,D36*%
X180975000Y-128650000D03*
X180975000Y-125350000D03*
%TD*%
%TO.C,D3*%
X119062500Y-90550000D03*
X119062500Y-87250000D03*
%TD*%
%TO.C,D24*%
X223837500Y-109600000D03*
X223837500Y-106300000D03*
%TD*%
%TO.C,D69*%
X242887500Y-166750000D03*
X242887500Y-163450000D03*
%TD*%
D15*
%TO.C,MX1*%
X67945000Y-88900000D03*
D11*
X73025000Y-88900000D03*
D15*
X78105000Y-88900000D03*
D16*
X76835000Y-91440000D03*
D19*
X80385000Y-91440000D03*
X66935000Y-93980000D03*
D16*
X70485000Y-93980000D03*
%TD*%
D15*
%TO.C,MX71*%
X268605000Y-165100000D03*
D11*
X263525000Y-165100000D03*
D15*
X258445000Y-165100000D03*
D16*
X259715000Y-162560000D03*
D17*
X256165000Y-162560000D03*
X269615000Y-160020000D03*
D16*
X266065000Y-160020000D03*
%TD*%
D15*
%TO.C,MX29*%
X316230000Y-107950000D03*
D11*
X311150000Y-107950000D03*
D15*
X306070000Y-107950000D03*
D16*
X307340000Y-105410000D03*
D17*
X303790000Y-105410000D03*
X317240000Y-102870000D03*
D16*
X313690000Y-102870000D03*
%TD*%
D18*
%TO.C,D49*%
X138112500Y-147700000D03*
X138112500Y-144400000D03*
%TD*%
%TO.C,D5*%
X157162500Y-90550000D03*
X157162500Y-87250000D03*
%TD*%
D15*
%TO.C,MX57*%
X287655000Y-146050000D03*
D11*
X282575000Y-146050000D03*
D15*
X277495000Y-146050000D03*
D16*
X278765000Y-143510000D03*
D17*
X275215000Y-143510000D03*
X288665000Y-140970000D03*
D16*
X285115000Y-140970000D03*
%TD*%
D18*
%TO.C,D14*%
X328612500Y-90550000D03*
X328612500Y-87250000D03*
%TD*%
%TO.C,D21*%
X185737500Y-109600000D03*
X185737500Y-106300000D03*
%TD*%
D15*
%TO.C,MX18*%
X125730000Y-107950000D03*
D11*
X120650000Y-107950000D03*
D15*
X115570000Y-107950000D03*
D16*
X116840000Y-105410000D03*
D17*
X113290000Y-105410000D03*
X126740000Y-102870000D03*
D16*
X123190000Y-102870000D03*
%TD*%
D18*
%TO.C,D43*%
X304800000Y-128650000D03*
X304800000Y-125350000D03*
%TD*%
D15*
%TO.C,MX31*%
X80486250Y-127000000D03*
D11*
X75406250Y-127000000D03*
D15*
X70326250Y-127000000D03*
D16*
X71596250Y-124460000D03*
D17*
X68046250Y-124460000D03*
X81496250Y-121920000D03*
D16*
X77946250Y-121920000D03*
%TD*%
D18*
%TO.C,D56*%
X271462500Y-147700000D03*
X271462500Y-144400000D03*
%TD*%
%TO.C,D8*%
X214312500Y-90550000D03*
X214312500Y-87250000D03*
%TD*%
%TO.C,D26*%
X261937500Y-109600000D03*
X261937500Y-106300000D03*
%TD*%
D15*
%TO.C,MX44*%
X320992500Y-127000000D03*
D11*
X315912500Y-127000000D03*
D15*
X310832500Y-127000000D03*
D16*
X312102500Y-124460000D03*
D17*
X308552500Y-124460000D03*
X322002500Y-121920000D03*
D16*
X318452500Y-121920000D03*
%TD*%
D18*
%TO.C,D60*%
X342900000Y-154050000D03*
X342900000Y-150750000D03*
%TD*%
D15*
%TO.C,MX21*%
X182880000Y-107950000D03*
D11*
X177800000Y-107950000D03*
D15*
X172720000Y-107950000D03*
D16*
X173990000Y-105410000D03*
D17*
X170440000Y-105410000D03*
X183890000Y-102870000D03*
D16*
X180340000Y-102870000D03*
%TD*%
D18*
%TO.C,D34*%
X142875000Y-128650000D03*
X142875000Y-125350000D03*
%TD*%
%TO.C,D51*%
X176212500Y-147700000D03*
X176212500Y-144400000D03*
%TD*%
%TO.C,D48*%
X119062500Y-147700000D03*
X119062500Y-144400000D03*
%TD*%
D15*
%TO.C,MX59*%
X325755000Y-146050000D03*
D11*
X320675000Y-146050000D03*
D15*
X315595000Y-146050000D03*
D16*
X316865000Y-143510000D03*
D17*
X313315000Y-143510000D03*
X326765000Y-140970000D03*
D16*
X323215000Y-140970000D03*
%TD*%
D18*
%TO.C,D54*%
X233362500Y-147700000D03*
X233362500Y-144400000D03*
%TD*%
%TO.C,D2*%
X98425000Y-85787500D03*
X98425000Y-82487500D03*
%TD*%
%TO.C,D74*%
X328612500Y-166750000D03*
X328612500Y-163450000D03*
%TD*%
D20*
%TO.C,C1*%
X98850000Y-132587500D03*
X98850000Y-134312500D03*
%TD*%
D15*
%TO.C,MX43*%
X301942500Y-127000000D03*
D11*
X296862500Y-127000000D03*
D15*
X291782500Y-127000000D03*
D16*
X293052500Y-124460000D03*
D17*
X289502500Y-124460000D03*
X302952500Y-121920000D03*
D16*
X299402500Y-121920000D03*
%TD*%
D15*
%TO.C,MX75*%
X344805000Y-165100000D03*
D11*
X339725000Y-165100000D03*
D15*
X334645000Y-165100000D03*
D16*
X335915000Y-162560000D03*
D17*
X332365000Y-162560000D03*
X345815000Y-160020000D03*
D16*
X342265000Y-160020000D03*
%TD*%
D21*
%TO.C,C5*%
X79362500Y-136350000D03*
X77637500Y-136350000D03*
%TD*%
D18*
%TO.C,D32*%
X104775000Y-128650000D03*
X104775000Y-125350000D03*
%TD*%
D22*
%TO.C,R4*%
X89693750Y-85762500D03*
X89693750Y-84037500D03*
%TD*%
D32*
%TO.C,U1*%
X83225000Y-129912500D03*
X83725000Y-129912500D03*
X84225000Y-129912500D03*
X84725000Y-129912500D03*
X85225000Y-129912500D03*
X85725000Y-129912500D03*
X86225000Y-129912500D03*
X86725000Y-129912500D03*
X87225000Y-129912500D03*
X87725000Y-129912500D03*
X88225000Y-129912500D03*
D33*
X89162500Y-130850000D03*
X89162500Y-131350000D03*
X89162500Y-131850000D03*
X89162500Y-132350000D03*
X89162500Y-132850000D03*
X89162500Y-133350000D03*
X89162500Y-133850000D03*
X89162500Y-134350000D03*
X89162500Y-134850000D03*
X89162500Y-135350000D03*
X89162500Y-135850000D03*
D32*
X88225000Y-136787500D03*
X87725000Y-136787500D03*
X87225000Y-136787500D03*
X86725000Y-136787500D03*
X86225000Y-136787500D03*
X85725000Y-136787500D03*
X85225000Y-136787500D03*
X84725000Y-136787500D03*
X84225000Y-136787500D03*
X83725000Y-136787500D03*
X83225000Y-136787500D03*
D33*
X82287500Y-135850000D03*
X82287500Y-135350000D03*
X82287500Y-134850000D03*
X82287500Y-134350000D03*
X82287500Y-133850000D03*
X82287500Y-133350000D03*
X82287500Y-132850000D03*
X82287500Y-132350000D03*
X82287500Y-131850000D03*
X82287500Y-131350000D03*
X82287500Y-130850000D03*
D34*
X85725000Y-133350000D03*
%TD*%
D18*
%TO.C,D12*%
X290512500Y-90550000D03*
X290512500Y-87250000D03*
%TD*%
D20*
%TO.C,R5*%
X83700000Y-113487500D03*
X83700000Y-115212500D03*
%TD*%
D18*
%TO.C,D65*%
X157162500Y-166750000D03*
X157162500Y-163450000D03*
%TD*%
%TO.C,D7*%
X195262500Y-90550000D03*
X195262500Y-87250000D03*
%TD*%
%TO.C,D19*%
X147637500Y-109600000D03*
X147637500Y-106300000D03*
%TD*%
D15*
%TO.C,MX36*%
X178117500Y-127000000D03*
D11*
X173037500Y-127000000D03*
D15*
X167957500Y-127000000D03*
D16*
X169227500Y-124460000D03*
D17*
X165677500Y-124460000D03*
X179127500Y-121920000D03*
D16*
X175577500Y-121920000D03*
%TD*%
D18*
%TO.C,D31*%
X92075000Y-115950000D03*
X92075000Y-112650000D03*
%TD*%
D15*
%TO.C,MX11*%
X268605000Y-88900000D03*
D11*
X263525000Y-88900000D03*
D15*
X258445000Y-88900000D03*
D16*
X259715000Y-86360000D03*
D17*
X256165000Y-86360000D03*
X269615000Y-83820000D03*
D16*
X266065000Y-83820000D03*
%TD*%
D18*
%TO.C,D20*%
X166687500Y-109600000D03*
X166687500Y-106300000D03*
%TD*%
D15*
%TO.C,MX61*%
X78105000Y-165100000D03*
D11*
X73025000Y-165100000D03*
D15*
X67945000Y-165100000D03*
D16*
X69215000Y-162560000D03*
D17*
X65665000Y-162560000D03*
X79115000Y-160020000D03*
D16*
X75565000Y-160020000D03*
%TD*%
D15*
%TO.C,MX27*%
X278130000Y-107950000D03*
D11*
X273050000Y-107950000D03*
D15*
X267970000Y-107950000D03*
D16*
X269240000Y-105410000D03*
D17*
X265690000Y-105410000D03*
X279140000Y-102870000D03*
D16*
X275590000Y-102870000D03*
%TD*%
D35*
%TO.C,J2*%
X90200000Y-98212500D03*
X90200000Y-99412500D03*
X90200000Y-100612500D03*
X90200000Y-101812500D03*
D36*
X93825000Y-97037500D03*
X93825000Y-102987500D03*
%TD*%
D18*
%TO.C,D1*%
X95250000Y-85787500D03*
X95250000Y-82487500D03*
%TD*%
%TO.C,D41*%
X266700000Y-128650000D03*
X266700000Y-125350000D03*
%TD*%
D15*
%TO.C,MX47*%
X97155000Y-146050000D03*
D11*
X92075000Y-146050000D03*
D15*
X86995000Y-146050000D03*
D16*
X88265000Y-143510000D03*
D17*
X84715000Y-143510000D03*
X98165000Y-140970000D03*
D16*
X94615000Y-140970000D03*
%TD*%
D15*
%TO.C,MX3*%
X116205000Y-88900000D03*
D11*
X111125000Y-88900000D03*
D15*
X106045000Y-88900000D03*
D16*
X107315000Y-86360000D03*
D17*
X103765000Y-86360000D03*
X117215000Y-83820000D03*
D16*
X113665000Y-83820000D03*
%TD*%
D15*
%TO.C,MX33*%
X120967500Y-127000000D03*
D11*
X115887500Y-127000000D03*
D15*
X110807500Y-127000000D03*
D16*
X112077500Y-124460000D03*
D17*
X108527500Y-124460000D03*
X121977500Y-121920000D03*
D16*
X118427500Y-121920000D03*
%TD*%
D18*
%TO.C,D33*%
X123825000Y-128650000D03*
X123825000Y-125350000D03*
%TD*%
%TO.C,D71*%
X271462500Y-166750000D03*
X271462500Y-163450000D03*
%TD*%
D15*
%TO.C,MX49*%
X135255000Y-146050000D03*
D11*
X130175000Y-146050000D03*
D15*
X125095000Y-146050000D03*
D16*
X126365000Y-143510000D03*
D17*
X122815000Y-143510000D03*
X136265000Y-140970000D03*
D16*
X132715000Y-140970000D03*
%TD*%
D18*
%TO.C,D16*%
X95250000Y-115950000D03*
X95250000Y-112650000D03*
%TD*%
D15*
%TO.C,MX39_2*%
X223361250Y-127000000D03*
D11*
X218281250Y-127000000D03*
D15*
X213201250Y-127000000D03*
D16*
X214471250Y-124460000D03*
D17*
X210921250Y-124460000D03*
X224371250Y-121920000D03*
D16*
X220821250Y-121920000D03*
%TD*%
D15*
%TO.C,MX64*%
X135255000Y-165100000D03*
D11*
X130175000Y-165100000D03*
D15*
X125095000Y-165100000D03*
D16*
X126365000Y-162560000D03*
D17*
X122815000Y-162560000D03*
X136265000Y-160020000D03*
D16*
X132715000Y-160020000D03*
%TD*%
D18*
%TO.C,D22*%
X204787500Y-109600000D03*
X204787500Y-106300000D03*
%TD*%
D37*
%TO.C,F1*%
X80168750Y-96143750D03*
X80168750Y-99118750D03*
%TD*%
D15*
%TO.C,MX60*%
X344805000Y-146050000D03*
D11*
X339725000Y-146050000D03*
D15*
X334645000Y-146050000D03*
D16*
X335915000Y-143510000D03*
D17*
X332365000Y-143510000D03*
X345815000Y-140970000D03*
D16*
X342265000Y-140970000D03*
%TD*%
D15*
%TO.C,MX13*%
X306705000Y-88900000D03*
D11*
X301625000Y-88900000D03*
D15*
X296545000Y-88900000D03*
D16*
X297815000Y-86360000D03*
D17*
X294265000Y-86360000D03*
X307715000Y-83820000D03*
D16*
X304165000Y-83820000D03*
%TD*%
D15*
%TO.C,MX9*%
X230505000Y-88900000D03*
D11*
X225425000Y-88900000D03*
D15*
X220345000Y-88900000D03*
D16*
X221615000Y-86360000D03*
D17*
X218065000Y-86360000D03*
X231515000Y-83820000D03*
D16*
X227965000Y-83820000D03*
%TD*%
D15*
%TO.C,MX34*%
X140017500Y-127000000D03*
D11*
X134937500Y-127000000D03*
D15*
X129857500Y-127000000D03*
D16*
X131127500Y-124460000D03*
D17*
X127577500Y-124460000D03*
X141027500Y-121920000D03*
D16*
X137477500Y-121920000D03*
%TD*%
D15*
%TO.C,MX63*%
X116205000Y-165100000D03*
D11*
X111125000Y-165100000D03*
D15*
X106045000Y-165100000D03*
D16*
X107315000Y-162560000D03*
D17*
X103765000Y-162560000D03*
X117215000Y-160020000D03*
D16*
X113665000Y-160020000D03*
%TD*%
D15*
%TO.C,MX53*%
X211455000Y-146050000D03*
D11*
X206375000Y-146050000D03*
D15*
X201295000Y-146050000D03*
D16*
X202565000Y-143510000D03*
D17*
X199015000Y-143510000D03*
X212465000Y-140970000D03*
D16*
X208915000Y-140970000D03*
%TD*%
D18*
%TO.C,D11*%
X271462500Y-90550000D03*
X271462500Y-87250000D03*
%TD*%
D15*
%TO.C,MX37_2*%
X189388750Y-127000000D03*
D11*
X194468750Y-127000000D03*
D15*
X199548750Y-127000000D03*
D16*
X198278750Y-129540000D03*
D19*
X201828750Y-129540000D03*
X188378750Y-132080000D03*
D16*
X191928750Y-132080000D03*
%TD*%
D20*
%TO.C,C3*%
X85725000Y-123756250D03*
X85725000Y-125481250D03*
%TD*%
D15*
%TO.C,MX74*%
X325755000Y-165100000D03*
D11*
X320675000Y-165100000D03*
D15*
X315595000Y-165100000D03*
D16*
X316865000Y-162560000D03*
D17*
X313315000Y-162560000D03*
X326765000Y-160020000D03*
D16*
X323215000Y-160020000D03*
%TD*%
D15*
%TO.C,MX4*%
X135255000Y-88900000D03*
D11*
X130175000Y-88900000D03*
D15*
X125095000Y-88900000D03*
D16*
X126365000Y-86360000D03*
D17*
X122815000Y-86360000D03*
X136265000Y-83820000D03*
D16*
X132715000Y-83820000D03*
%TD*%
D18*
%TO.C,D28*%
X300037500Y-109600000D03*
X300037500Y-106300000D03*
%TD*%
D15*
%TO.C,MX52*%
X192405000Y-146050000D03*
D11*
X187325000Y-146050000D03*
D15*
X182245000Y-146050000D03*
D16*
X183515000Y-143510000D03*
D17*
X179965000Y-143510000D03*
X193415000Y-140970000D03*
D16*
X189865000Y-140970000D03*
%TD*%
D15*
%TO.C,MX55*%
X249555000Y-146050000D03*
D11*
X244475000Y-146050000D03*
D15*
X239395000Y-146050000D03*
D16*
X240665000Y-143510000D03*
D17*
X237115000Y-143510000D03*
X250565000Y-140970000D03*
D16*
X247015000Y-140970000D03*
%TD*%
D15*
%TO.C,MX25*%
X240030000Y-107950000D03*
D11*
X234950000Y-107950000D03*
D15*
X229870000Y-107950000D03*
D16*
X231140000Y-105410000D03*
D17*
X227590000Y-105410000D03*
X241040000Y-102870000D03*
D16*
X237490000Y-102870000D03*
%TD*%
D15*
%TO.C,MX72*%
X287655000Y-165100000D03*
D11*
X282575000Y-165100000D03*
D15*
X277495000Y-165100000D03*
D16*
X278765000Y-162560000D03*
D17*
X275215000Y-162560000D03*
X288665000Y-160020000D03*
D16*
X285115000Y-160020000D03*
%TD*%
D15*
%TO.C,MX30*%
X340042500Y-107950000D03*
D11*
X334962500Y-107950000D03*
D15*
X329882500Y-107950000D03*
D16*
X331152500Y-105410000D03*
D17*
X327602500Y-105410000D03*
X341052500Y-102870000D03*
D16*
X337502500Y-102870000D03*
%TD*%
D18*
%TO.C,D64*%
X138112500Y-166750000D03*
X138112500Y-163450000D03*
%TD*%
D15*
%TO.C,MX58*%
X306705000Y-146050000D03*
D11*
X301625000Y-146050000D03*
D15*
X296545000Y-146050000D03*
D16*
X297815000Y-143510000D03*
D17*
X294265000Y-143510000D03*
X307715000Y-140970000D03*
D16*
X304165000Y-140970000D03*
%TD*%
D15*
%TO.C,MX17*%
X106680000Y-107950000D03*
D11*
X101600000Y-107950000D03*
D15*
X96520000Y-107950000D03*
D16*
X97790000Y-105410000D03*
D17*
X94240000Y-105410000D03*
X107690000Y-102870000D03*
D16*
X104140000Y-102870000D03*
%TD*%
D18*
%TO.C,D45*%
X327025000Y-128650000D03*
X327025000Y-125350000D03*
%TD*%
D22*
%TO.C,R3*%
X73818750Y-85862500D03*
X73818750Y-84137500D03*
%TD*%
D15*
%TO.C,MX28*%
X297180000Y-107950000D03*
D11*
X292100000Y-107950000D03*
D15*
X287020000Y-107950000D03*
D16*
X288290000Y-105410000D03*
D17*
X284740000Y-105410000D03*
X298190000Y-102870000D03*
D16*
X294640000Y-102870000D03*
%TD*%
D15*
%TO.C,MX37*%
X197167500Y-127000000D03*
D11*
X192087500Y-127000000D03*
D15*
X187007500Y-127000000D03*
D16*
X188277500Y-124460000D03*
D17*
X184727500Y-124460000D03*
X198177500Y-121920000D03*
D16*
X194627500Y-121920000D03*
%TD*%
D15*
%TO.C,MX62*%
X97155000Y-165100000D03*
D11*
X92075000Y-165100000D03*
D15*
X86995000Y-165100000D03*
D16*
X88265000Y-162560000D03*
D17*
X84715000Y-162560000D03*
X98165000Y-160020000D03*
D16*
X94615000Y-160020000D03*
%TD*%
D15*
%TO.C,MX6*%
X173355000Y-88900000D03*
D11*
X168275000Y-88900000D03*
D15*
X163195000Y-88900000D03*
D16*
X164465000Y-86360000D03*
D17*
X160915000Y-86360000D03*
X174365000Y-83820000D03*
D16*
X170815000Y-83820000D03*
%TD*%
D18*
%TO.C,D9*%
X233362500Y-90550000D03*
X233362500Y-87250000D03*
%TD*%
M02*
