M48
; DRILL file {KiCad 9.0.7} date 2026-03-12T20:53:13+0100
; FORMAT={-:-/ absolute / inch / decimal}
; #@! TF.CreationDate,2026-03-12T20:53:13+01:00
; #@! TF.GenerationSoftware,Kicad,Pcbnew,9.0.7
; #@! TF.FileFunction,Plated,1,2,PTH
FMAT,2
INCH
; #@! TA.AperFunction,Plated,PTH,ViaDrill
T1C0.0118
; #@! TA.AperFunction,Plated,PTH,ViaDrill
T2C0.0197
; #@! TA.AperFunction,Plated,PTH,ComponentDrill
T3C0.0236
; #@! TA.AperFunction,Plated,PTH,ComponentDrill
T4C0.0394
; #@! TA.AperFunction,Plated,PTH,ComponentDrill
T5C0.0709
; #@! TA.AperFunction,Plated,PTH,ComponentDrill
T6C0.1181
%
G90
G05
T1
X3.4449Y-5.2362
X3.5827Y-4.4209
T2
X3.1496Y-3.3071
X3.3071Y-3.3071
X3.3162Y-3.8071
X3.625Y-3.8438
T4
X4.4491Y-4.4304
X4.4491Y-4.5304
X4.4491Y-4.6304
X4.5491Y-4.4304
X4.5491Y-4.5304
X4.5491Y-4.6304
T5
X7.751Y-5.0
X8.499Y-5.0
T6
X2.725Y-5.65
X2.725Y-6.4
X2.775Y-3.7
X2.8188Y-4.9
X2.9125Y-4.15
X2.975Y-5.55
X2.975Y-6.3
X3.025Y-3.6
X3.0688Y-4.8
X3.1625Y-4.05
X3.475Y-5.65
X3.475Y-6.4
X3.525Y-3.7
X3.6625Y-4.9
X3.725Y-5.55
X3.725Y-6.3
X3.775Y-3.6
X3.85Y-4.15
X3.9125Y-4.8
X4.1Y-4.05
X4.225Y-3.4
X4.225Y-5.65
X4.225Y-6.4
X4.4125Y-4.9
X4.475Y-3.3
X4.475Y-5.55
X4.475Y-6.3
X4.6Y-4.15
X4.6625Y-4.8
X4.85Y-4.05
X4.975Y-3.4
X4.975Y-5.65
X4.975Y-6.4
X5.1625Y-4.9
X5.225Y-3.3
X5.225Y-5.55
X5.225Y-6.3
X5.35Y-4.15
X5.4125Y-4.8
X5.6Y-4.05
X5.725Y-3.4
X5.725Y-5.65
X5.725Y-6.4
X5.9125Y-4.9
X5.975Y-3.3
X5.975Y-5.55
X5.975Y-6.3
X6.1Y-4.15
X6.1625Y-4.8
X6.35Y-4.05
X6.475Y-3.4
X6.475Y-5.65
X6.6625Y-4.9
X6.725Y-3.3
X6.725Y-5.55
X6.8Y-4.15
X6.85Y-6.4
X6.9Y-4.4
X6.9125Y-4.8
X7.1Y-6.3
X7.225Y-3.4
X7.225Y-5.65
X7.3625Y-4.9
X7.4625Y-5.15
X7.475Y-3.3
X7.475Y-5.55
X7.9745Y-5.6496
X7.975Y-3.4
X8.0245Y-6.6996
X8.2245Y-5.5496
X8.225Y-3.3
X8.225Y-4.1
X8.2745Y-6.5996
X8.325Y-4.35
X8.7244Y-5.6496
X8.725Y-3.4
X8.7875Y-4.85
X8.8875Y-5.1
X8.9744Y-5.5496
X8.975Y-3.3
X9.0994Y-6.3996
X9.1Y-4.15
X9.2875Y-4.9
X9.3494Y-6.2996
X9.35Y-4.05
X9.475Y-3.4
X9.475Y-5.65
X9.5375Y-4.8
X9.725Y-3.3
X9.725Y-5.55
X9.85Y-4.15
X10.0375Y-4.9
X10.1Y-4.05
X10.225Y-3.4
X10.225Y-5.65
X10.225Y-6.4
X10.2875Y-4.8
X10.475Y-3.3
X10.475Y-5.55
X10.475Y-6.3
X10.6Y-4.15
X10.7875Y-4.9
X10.85Y-4.05
X10.975Y-3.4
X10.975Y-5.65
X10.975Y-6.4
X11.0375Y-4.8
X11.225Y-3.3
X11.225Y-5.55
X11.225Y-6.3
X11.35Y-4.15
X11.5375Y-4.9
X11.6Y-4.05
X11.725Y-3.4
X11.725Y-5.65
X11.725Y-6.4
X11.7875Y-4.8
X11.975Y-3.3
X11.975Y-5.55
X11.975Y-6.3
X12.1Y-4.15
X12.2875Y-4.9
X12.35Y-4.05
X12.475Y-3.4
X12.475Y-5.65
X12.475Y-6.4
X12.5375Y-4.8
X12.725Y-3.3
X12.725Y-5.55
X12.725Y-6.3
X13.0375Y-4.15
X13.1312Y-4.9
X13.225Y-3.4
X13.225Y-5.65
X13.225Y-6.4
X13.2875Y-4.05
X13.3812Y-4.8
X13.475Y-3.3
X13.475Y-5.55
X13.475Y-6.3
T3
G00X3.0583Y-3.1831
M15
G01X3.0583Y-3.2067
M16
G05
G00X3.0583Y-3.3378
M15
G01X3.0583Y-3.3811
M16
G05
G00X3.3984Y-3.1831
M15
G01X3.3984Y-3.2067
M16
G05
G00X3.3984Y-3.3378
M15
G01X3.3984Y-3.3811
M16
G05
M30
